<svg width="22" height="15" viewBox="0 0 22 15" fill="none" xmlns="http://www.w3.org/2000/svg">
<g clip-path="url(#clip0_2623_2772)">
<path d="M0.0820101 1.03111L10.9998 6.53045L21.918 1.03111C21.842 0.809967 21.7165 0.611011 21.5551 0.448383C21.2808 0.171892 20.9029 0 20.488 0H1.51174C1.09686 0.000243819 0.71898 0.172136 0.444645 0.448627C0.283286 0.611255 0.15773 0.809967 0.0820101 1.03136M22 2.929L10.9998 8.46979L0 2.929V13.4764C0 13.8945 0.17031 14.2754 0.444645 14.5519C0.71898 14.8284 1.09686 15.0002 1.51174 15.0002H20.488C20.9029 15.0002 21.2808 14.8284 21.5551 14.5519C21.8294 14.2754 22 13.8945 22 13.4764V2.929Z" fill="#E1261D"/>
</g>
<defs>
<clipPath id="clip0_2623_2772">
<rect width="22" height="15" fill="white"/>
</clipPath>
</defs>
</svg>
