<svg width="17" height="22" viewBox="0 0 17 22" fill="none" xmlns="http://www.w3.org/2000/svg">
<path d="M8.67687 22C8.55892 22 8.44098 22 8.32303 22C8.15908 21.8831 7.98098 21.7806 7.83355 21.6465C6.14926 20.1151 4.6295 18.4433 3.30318 16.6089C2.0954 14.9382 1.07457 13.1719 0.468905 11.2028C-0.152678 9.18214 -0.214011 7.16318 0.63698 5.19063C1.74392 2.62453 3.69418 0.9625 6.47243 0.250365C6.94599 0.128906 7.44019 0.0813542 7.92437 0C8.30769 0 8.69102 0 9.07435 0C9.48068 0.061875 9.89173 0.101406 10.2922 0.18849C14.8426 1.17734 17.7282 5.49656 16.8394 9.95214C16.5275 11.5145 15.9348 12.9691 15.1475 14.3533C13.5929 17.0861 11.5489 19.4442 9.23181 21.5892C9.06433 21.7445 8.86264 21.8636 8.67687 22ZM8.35841 12.8328C10.9061 12.9473 13.0887 10.9547 13.2161 8.39781C13.3399 5.91307 11.2758 3.77896 8.6409 3.66724C6.08615 3.55896 3.9 5.55443 3.78323 8.10219C3.66823 10.5944 5.71816 12.7142 8.35841 12.8328Z" fill="#E1261D"/>
</svg>
