<svg width="20" height="20" viewBox="0 0 20 20" fill="none" xmlns="http://www.w3.org/2000/svg">
<path d="M14.9929 20C14.0244 19.9122 13.1876 19.6906 12.3708 19.3891C10.4197 18.6693 8.68944 17.5757 7.08814 16.266C4.8552 14.4393 2.99035 12.2983 1.57864 9.7773C0.84582 8.46877 0.295927 7.08971 0.0368263 5.60235C-0.041571 5.15081 -0.00487445 4.74814 0.24533 4.35048C1.16552 2.89088 2.22472 1.55126 3.55358 0.438233C3.63865 0.367141 3.73373 0.308269 3.82436 0.243843C4.3459 -0.125499 4.76179 -0.0616278 5.30946 0.343259C5.40843 0.416572 5.49517 0.513212 5.56689 0.613739C6.42204 1.82062 7.24437 3.04917 7.89268 4.38324C8.03446 4.67483 8.14177 4.98474 8.24408 5.29299C8.37029 5.67288 8.29412 6.03667 8.0239 6.32159C7.69975 6.66316 7.34501 6.97641 6.98972 7.28632C6.53157 7.68677 6.51989 7.68288 6.76343 8.25105C7.80372 10.6776 9.55571 12.3694 12.0172 13.3335C12.2329 13.4179 12.3686 13.4124 12.5248 13.213C12.815 12.8414 13.1358 12.4932 13.4556 12.1455C13.872 11.6918 14.3852 11.5512 14.9484 11.8112C15.659 12.1394 16.3702 12.476 17.0424 12.8742C17.8358 13.3441 18.5914 13.8789 19.3576 14.3943C19.6812 14.6121 19.8763 14.9247 19.9714 15.3058C20.0231 15.5146 20.0076 15.7106 19.9008 15.8884C19.7624 16.12 19.6245 16.3582 19.4477 16.5587C18.3045 17.8562 16.9795 18.9364 15.4822 19.8034C15.3065 19.9045 15.103 19.9567 14.9929 20Z" fill="white"/>
</svg>
