<svg width="18" height="23" viewBox="0 0 18 23" fill="none" xmlns="http://www.w3.org/2000/svg">
<path d="M9.18727 23C9.06239 23 8.9375 23 8.81262 23C8.63903 22.8778 8.45045 22.7706 8.29434 22.6304C6.51098 21.0294 4.90183 19.2817 3.49749 17.3638C2.21866 15.6172 1.13778 13.7706 0.496488 11.712C-0.161659 9.5995 -0.226599 7.48878 0.67445 5.42656C1.8465 2.74383 3.91148 1.00625 6.85316 0.261745C7.35458 0.134766 7.87785 0.0850521 8.3905 0C8.79638 0 9.20226 0 9.60814 0C10.0384 0.0646875 10.4736 0.106016 10.8976 0.197057C15.7157 1.23086 18.771 5.74641 17.83 10.4045C17.4997 12.0379 16.8721 13.5586 16.0385 15.0057C14.3925 17.8627 12.2282 20.328 9.77486 22.5705C9.59752 22.7329 9.38397 22.8574 9.18727 23ZM8.85008 13.4161C11.5476 13.5359 13.8586 11.4527 13.9935 8.77953C14.1246 6.18185 11.9391 3.95073 9.14918 3.83393C6.44416 3.72073 4.12941 5.8069 4.00577 8.47047C3.88401 11.0759 6.05452 13.2921 8.85008 13.4161Z" fill="white"/>
</svg>
