<svg width="20" height="20" viewBox="0 0 20 20" fill="none" xmlns="http://www.w3.org/2000/svg">
<g clip-path="url(#clip0_2308_808)">
<path fill-rule="evenodd" clip-rule="evenodd" d="M17.0863 2.90678C15.206 1.03339 12.7051 0 10.0417 0C4.5527 0 0.0849837 4.44629 0.0834661 9.90935C0.0834661 11.6558 0.541771 13.3615 1.41285 14.8633L0 20L5.27961 18.6221C6.73344 19.4123 8.37241 19.8278 10.0387 19.8278H10.0433C15.5308 19.8278 19.9985 15.3815 20.0015 9.91691C20.0015 7.26847 18.9681 4.77867 17.0878 2.90527L17.0863 2.90678ZM10.0417 18.1538H10.0387C8.553 18.1538 7.09766 17.7565 5.82594 17.0056L5.52394 16.8273L2.39168 17.6447L3.22786 14.6049L3.03058 14.2937C2.20199 12.9823 1.76493 11.467 1.76493 9.90935C1.76645 5.36788 5.47993 1.67246 10.0448 1.67246C12.2559 1.67246 14.3334 2.53059 15.8965 4.08823C17.4596 5.64587 18.3185 7.71416 18.3185 9.91539C18.317 14.4569 14.6035 18.1523 10.0417 18.1523V18.1538ZM14.5823 11.9852C14.3334 11.8613 13.1103 11.2615 12.8826 11.1799C12.655 11.0968 12.488 11.0561 12.3226 11.3038C12.1572 11.5516 11.6792 12.1091 11.535 12.2753C11.3893 12.4399 11.2452 12.4611 10.9963 12.3372C10.7474 12.2133 9.94613 11.952 8.99461 11.1074C8.25556 10.4502 7.75628 9.64043 7.61059 9.39266C7.46491 9.14489 7.59542 9.01042 7.71986 8.88654C7.83216 8.77625 7.96874 8.59798 8.09318 8.45294C8.21762 8.3079 8.25859 8.20517 8.34206 8.04049C8.42553 7.87581 8.38303 7.73077 8.32081 7.60689C8.25859 7.483 7.76083 6.26379 7.55293 5.76824C7.35109 5.28479 7.14622 5.35126 6.99294 5.34371C6.84726 5.33615 6.68184 5.33464 6.51643 5.33464C6.35101 5.33464 6.08089 5.39659 5.85325 5.64436C5.62562 5.89213 4.98217 6.49192 4.98217 7.70962C4.98217 8.92733 5.87298 10.1058 5.99742 10.2719C6.12186 10.4366 7.75173 12.9385 10.2481 14.0112C10.8415 14.2665 11.3059 14.4191 11.667 14.5324C12.2634 14.7213 12.8052 14.6941 13.2347 14.6306C13.7127 14.5596 14.7067 14.0308 14.9146 13.4537C15.1225 12.8751 15.1225 12.3795 15.0603 12.2768C14.9981 12.174 14.8327 12.1121 14.5838 11.9882L14.5823 11.9852Z" fill="white"/>
</g>
<defs>
<clipPath id="clip0_2308_808">
<rect width="20" height="20" fill="white"/>
</clipPath>
</defs>
</svg>
