<svg width="19" height="19" viewBox="0 0 19 19" fill="none" xmlns="http://www.w3.org/2000/svg">
<path d="M14.2433 19C13.3231 18.9166 12.5282 18.7061 11.7522 18.4196C9.89876 17.7358 8.25497 16.6969 6.73373 15.4527C4.61244 13.7174 2.84083 11.6833 1.49971 9.28843C0.803529 8.04533 0.28113 6.73523 0.0349849 5.32223C-0.0394925 4.89327 -0.00463072 4.51074 0.233063 4.13295C1.10725 2.74634 2.11349 1.47369 3.37591 0.416321C3.45672 0.348784 3.54705 0.292856 3.63314 0.23165C4.1286 -0.119224 4.5237 -0.0585465 5.04399 0.326096C5.13801 0.395744 5.22041 0.487551 5.28855 0.583052C6.10093 1.72959 6.88216 2.89671 7.49805 4.16408C7.63274 4.44109 7.73468 4.73551 7.83188 5.02834C7.95178 5.38924 7.87941 5.73484 7.6227 6.00551C7.31476 6.33001 6.97776 6.62759 6.64024 6.92201C6.20499 7.30243 6.1939 7.29874 6.42526 7.8385C7.41353 10.1437 9.07792 11.7509 11.4163 12.6669C11.6212 12.7471 11.7501 12.7418 11.8986 12.5524C12.1743 12.1994 12.4791 11.8685 12.7828 11.5382C13.1784 11.1072 13.6659 10.9737 14.201 11.2206C14.8761 11.5324 15.5516 11.8522 16.1903 12.2305C16.944 12.6769 17.6618 13.185 18.3897 13.6746C18.6971 13.8815 18.8825 14.1785 18.9729 14.5405C19.022 14.7389 19.0072 14.9251 18.9058 15.094C18.7742 15.314 18.6433 15.5403 18.4753 15.7308C17.3893 16.9633 16.1306 17.9896 14.7081 18.8132C14.5412 18.9092 14.3479 18.9588 14.2433 19Z" fill="#E1261D"/>
</svg>
