<svg width="418" height="352" viewBox="0 0 418 352" fill="none" xmlns="http://www.w3.org/2000/svg">
<g clip-path="url(#clip0_2056_77)">
<path d="M201.297 140.155C217.462 140.155 230.567 127.066 230.567 110.92C230.567 94.7735 217.462 81.6846 201.297 81.6846C185.131 81.6846 172.027 94.7735 172.027 110.92C172.027 127.066 185.131 140.155 201.297 140.155Z" fill="white"/>
<path d="M0 124.068H16.9013L37.3227 182.273L56.5868 124.068H60.7579L33.441 206.981H29.4145L0 124.068Z" fill="white"/>
<path d="M66.231 153.159C71.4389 147.572 79.3711 145.621 85.4951 145.621C102.662 145.621 107.363 156.675 107.363 176.927V205.512H91.7397V198.239C88.4848 202.791 83.8074 206.427 77.6834 206.427C67.9188 206.427 58.564 200.575 58.564 191.882C58.564 173.941 91.7397 173.7 91.2093 161.997C91.2093 161.346 91.0887 160.696 90.9441 160.046C89.6421 153.929 86.773 149.257 80.5284 149.257C77.5388 149.257 75.0554 150.437 74.5491 151.328C78.1897 152.364 80.9142 155.735 80.9142 159.781C80.9142 164.718 76.8878 168.619 72.0657 168.619C67.2437 168.619 63.2172 164.718 63.2172 159.781C63.2172 157.301 64.254 154.724 66.2069 153.159H66.231ZM91.7156 182.008C91.7156 178.757 91.9808 173.941 91.8362 169.149C87.9303 177.072 75.3206 180.852 75.3206 191.882C75.3206 197.734 78.5755 200.72 82.4814 200.72C86.6524 200.72 89.7627 196.554 91.7156 192.002V182.008Z" fill="white"/>
<path d="M138.827 145.766C142.588 145.766 146.374 147.066 149.628 149.932V110.944L165.228 108.078V205.536H149.628V201.779C146.253 204.765 142.202 206.186 138.176 206.186C127.375 206.186 116.453 195.663 116.453 176.421C116.453 157.18 127.76 145.766 138.827 145.766ZM143.504 200.334C145.578 200.334 147.796 199.154 149.628 196.698V155.374C147.941 153.038 145.867 151.858 143.914 151.858C138.321 151.858 132.727 160.311 132.727 176.421C132.727 192.532 138.055 200.334 143.528 200.334H143.504Z" fill="white"/>
<path d="M192.038 146.922V205.536H176.439V149.787L192.038 146.922Z" fill="white"/>
<path d="M219.356 146.922V153.038C221.694 149.282 225.48 146.536 231.073 146.536C240.838 146.536 245.25 151.088 247.323 156.53C249.397 150.943 253.568 146.536 260.729 146.536C278.426 146.536 278.691 161.491 278.691 170.449V205.536H263.092V167.198C263.092 155.639 260.222 150.702 257.112 150.702C253.472 150.702 249.566 156.939 249.035 166.548V205.536H233.436V167.198C233.436 155.639 230.567 150.702 227.457 150.702C223.936 150.702 220.175 156.554 219.38 165.898V205.536H203.78V149.787L219.38 146.922H219.356Z" fill="white"/>
<path d="M294.82 153.159C300.028 147.572 307.961 145.621 314.085 145.621C331.251 145.621 335.953 156.675 335.953 176.927V205.512H320.329V198.239C317.074 202.791 312.397 206.427 306.273 206.427C296.508 206.427 287.153 200.575 287.153 191.882C287.153 173.941 320.329 173.7 319.799 161.997C319.799 161.346 319.678 160.696 319.533 160.046C318.231 153.929 315.362 149.257 309.118 149.257C306.128 149.257 303.645 150.437 303.138 151.328C306.779 152.364 309.504 155.735 309.504 159.781C309.504 164.718 305.477 168.619 300.655 168.619C295.833 168.619 291.807 164.718 291.807 159.781C291.807 157.301 292.843 154.724 294.796 153.159H294.82ZM320.305 182.008C320.305 178.757 320.57 173.941 320.426 169.149C316.52 177.072 303.91 180.852 303.91 191.882C303.91 197.734 307.165 200.72 311.071 200.72C315.242 200.72 318.352 196.554 320.305 192.002V182.008Z" fill="white"/>
<path d="M346.344 205.536V149.787L361.944 146.922V156.675C365.319 150.967 371.443 146.657 378.194 146.657C383.016 146.657 387.042 150.558 387.042 155.495C387.042 160.431 383.016 164.332 378.194 164.332C373.372 164.332 369.345 160.311 369.345 155.495C369.345 154.724 369.466 153.929 369.611 153.279C365.97 156.145 362.836 161.081 361.944 168.739V205.512H346.344V205.536Z" fill="white"/>
<path d="M418 148.15C418 153.857 413.515 158.336 407.681 158.336C401.846 158.336 397.289 153.857 397.289 148.15C397.289 142.442 401.894 138.084 407.681 138.084C413.467 138.084 418 142.563 418 148.15ZM399.845 148.15C399.845 152.629 403.172 156.193 407.705 156.193C412.237 156.193 415.396 152.629 415.396 148.198C415.396 143.767 412.141 140.082 407.656 140.082C403.172 140.082 399.845 143.695 399.845 148.126V148.15ZM406.065 153.424H403.727V143.357C404.643 143.165 405.945 143.044 407.608 143.044C409.513 143.044 410.381 143.357 411.104 143.791C411.659 144.224 412.093 145.019 412.093 146.006C412.093 147.114 411.225 147.981 409.995 148.342V148.463C410.984 148.824 411.538 149.571 411.852 150.919C412.165 152.46 412.334 153.062 412.599 153.448H410.068C409.754 153.086 409.585 152.147 409.272 150.991C409.079 149.884 408.476 149.402 407.174 149.402H406.065V153.448V153.424ZM406.113 147.716H407.222C408.524 147.716 409.561 147.283 409.561 146.247C409.561 145.332 408.886 144.706 407.415 144.706C406.789 144.706 406.379 144.778 406.113 144.826V147.716Z" fill="white"/>
<path d="M83.6143 124.068V60.3965L316.303 3.0824V124.574" stroke="white" stroke-width="4" stroke-miterlimit="10"/>
<path d="M316.303 227.932V291.603L83.6143 348.918V227.426" stroke="white" stroke-width="4" stroke-miterlimit="10"/>
</g>
<defs>
<clipPath id="clip0_2056_77">
<rect width="418" height="352" fill="white"/>
</clipPath>
</defs>
</svg>
