<svg width="274" height="231" viewBox="0 0 274 231" fill="none" xmlns="http://www.w3.org/2000/svg">
<g clip-path="url(#clip0_2685_2670)">
<path d="M78.6543 160.642C77.971 160.692 77.4492 160.543 77.1013 160.197C76.7534 159.85 76.5174 159.429 76.3931 158.908C76.2689 158.388 76.244 157.831 76.3062 157.237C76.3683 156.642 76.4677 156.122 76.6043 155.664C77.0516 154.277 77.7598 153.013 78.7289 151.886C79.6979 150.759 80.7788 149.806 81.9591 149.038C82.5555 148.642 83.1767 148.282 83.8227 147.973C84.4688 147.663 85.1645 147.465 85.8975 147.391C86.4939 147.316 87.0778 147.341 87.6493 147.477C88.2208 147.614 88.6557 147.985 88.9663 148.58C89.2769 149.224 89.4011 149.843 89.3514 150.437C89.3017 151.044 89.1651 151.639 88.9414 152.258C88.6929 152.877 88.432 153.472 88.1463 154.029C87.8605 154.586 87.5624 155.144 87.2393 155.713C86.8418 156.382 86.4566 157.051 86.0715 157.695C85.6863 158.351 85.3012 159.02 84.9285 159.701C84.7173 160.097 84.4936 160.494 84.27 160.878C84.0464 161.262 83.8352 161.658 83.6115 162.054C83.5245 162.252 83.4127 162.5 83.2885 162.81C83.1642 163.119 83.0773 163.429 83.0276 163.751C82.9779 164.073 82.9779 164.37 83.0524 164.643C83.127 164.915 83.3133 165.126 83.6115 165.262C83.8352 165.373 84.0836 165.398 84.3321 165.349C84.5806 165.299 84.8291 165.225 85.0776 165.101C85.326 164.977 85.5497 164.841 85.7733 164.667C85.9969 164.506 86.1957 164.358 86.3821 164.234C86.9287 163.838 87.4381 163.417 87.8978 162.983C88.3575 162.55 88.7799 162.054 89.1775 161.509C90.0596 160.296 90.8796 159.008 91.6126 157.67C92.358 156.332 92.942 154.933 93.3892 153.472C93.4514 153.261 93.5259 153.001 93.6129 152.716C93.6998 152.431 93.7744 152.134 93.8241 151.837C93.8738 151.54 93.8862 151.242 93.8862 150.957C93.8862 150.673 93.8241 150.413 93.7123 150.202C93.6626 150.115 93.6129 150.041 93.5508 150.004C93.4886 149.967 93.4265 149.93 93.3768 149.892C93.3271 149.855 93.265 149.818 93.2153 149.769C93.1656 149.719 93.1283 149.645 93.1159 149.546C93.0538 149.236 93.0414 148.939 93.0786 148.642C93.1159 148.344 93.2526 148.072 93.5011 147.812C93.6874 147.614 93.8862 147.477 94.1223 147.403C94.3583 147.329 94.5695 147.316 94.7932 147.354C95.0044 147.403 95.2032 147.502 95.3647 147.676C95.5262 147.849 95.6504 148.072 95.725 148.357C95.8492 148.889 95.8492 149.459 95.7498 150.078C95.6504 150.697 95.5138 151.255 95.3647 151.763C94.9174 153.174 94.3459 154.537 93.6377 155.837C92.9296 157.137 92.1468 158.401 91.3144 159.614C90.9044 160.221 90.4572 160.841 89.9851 161.46C89.5129 162.079 89.016 162.673 88.4817 163.243C87.9599 163.813 87.3884 164.345 86.7921 164.841C86.1957 165.336 85.5745 165.757 84.916 166.104C84.4439 166.364 83.9345 166.55 83.3879 166.674C82.8412 166.798 82.3194 166.76 81.7976 166.587C81.3131 166.414 80.9652 166.129 80.7788 165.708C80.5925 165.287 80.4807 164.841 80.4434 164.345C80.431 163.813 80.4807 163.293 80.6173 162.785C80.7416 162.277 80.9279 161.782 81.1391 161.299C81.3628 160.816 81.6112 160.345 81.8846 159.887C82.1579 159.416 82.4312 158.97 82.6921 158.525C83.3382 157.484 83.947 156.456 84.5433 155.428C85.1397 154.4 85.7112 153.335 86.2578 152.246C86.469 151.862 86.6678 151.465 86.8666 151.057C87.053 150.648 87.1896 150.214 87.2393 149.781C87.2642 149.447 87.2393 149.162 87.1275 148.926C87.0157 148.691 86.8666 148.505 86.6554 148.381C86.4442 148.258 86.2081 148.171 85.9348 148.159C85.6615 148.134 85.3757 148.159 85.09 148.258C84.5557 148.406 84.0464 148.629 83.5618 148.926C83.0773 149.224 82.63 149.558 82.22 149.917C81.6734 150.388 81.1515 150.896 80.6546 151.428C80.1576 151.961 79.7228 152.543 79.3625 153.162C79.0395 153.695 78.7661 154.252 78.5425 154.846C78.3189 155.428 78.1698 156.035 78.0952 156.642C78.0828 156.84 78.0704 157.051 78.0704 157.298C78.0704 157.546 78.0952 157.757 78.1449 157.967C78.1946 158.178 78.2816 158.376 78.4058 158.537C78.5301 158.71 78.7164 158.822 78.9525 158.884C79.1761 158.946 79.3998 158.958 79.6234 158.908C79.8346 158.859 80.0458 158.797 80.2694 158.698C80.5925 158.562 80.8534 158.413 81.0646 158.252C81.2758 158.091 81.4746 157.881 81.6734 157.62C81.7603 157.509 81.8846 157.447 82.0337 157.41C82.1827 157.385 82.2449 157.459 82.2324 157.658C82.2324 157.781 82.1703 157.93 82.0585 158.091C81.9467 158.264 81.8597 158.401 81.7976 158.525C81.6237 158.785 81.4249 159.02 81.1764 159.243C80.9279 159.466 80.6794 159.664 80.4185 159.85C80.1701 160.023 79.8967 160.184 79.5861 160.37C79.2755 160.543 78.9525 160.642 78.6419 160.655L78.6543 160.642Z" fill="white"/>
<path d="M96.8902 157.15C96.6666 157.757 96.4057 158.314 96.1199 158.809C95.8342 159.305 95.5484 159.788 95.2378 160.258C95.1136 160.457 94.9893 160.655 94.8651 160.853C94.7408 161.051 94.6042 161.262 94.4923 161.472C94.2811 161.856 94.0451 162.24 93.809 162.612C93.5606 162.995 93.3369 163.367 93.1257 163.726C93.0512 163.838 92.9642 163.961 92.8896 164.11C92.8027 164.259 92.7281 164.42 92.666 164.593C92.6039 164.754 92.5666 164.927 92.5666 165.101C92.5666 165.274 92.6039 165.423 92.6909 165.584C92.7778 165.708 92.8772 165.77 92.9642 165.794C93.1506 165.856 93.3742 165.819 93.6351 165.683C93.896 165.547 94.1818 165.349 94.4675 165.088C94.7533 164.828 95.0514 164.531 95.3496 164.197C95.6478 163.862 95.9211 163.528 96.182 163.194C96.4429 162.859 96.6666 162.537 96.8529 162.24C97.0393 161.93 97.1884 161.683 97.2753 161.485H97.2505L97.3375 161.324L97.5611 161.002C97.6356 160.89 97.6853 160.915 97.7226 161.051C97.735 161.088 97.7475 161.138 97.7226 161.212C97.7226 161.286 97.6853 161.373 97.6481 161.46V161.435C97.5238 161.608 97.412 161.794 97.3002 161.992C97.1884 162.19 97.089 162.389 96.9772 162.574C96.6666 163.119 96.3435 163.652 95.9957 164.172C95.6478 164.692 95.2502 165.15 94.8278 165.547C94.4054 165.943 93.9333 166.265 93.4363 166.5C92.9269 166.748 92.3803 166.872 91.7591 166.872C91.5479 166.872 91.3366 166.835 91.1379 166.748C90.9391 166.661 90.7776 166.5 90.6533 166.253C90.5042 166.005 90.4297 165.72 90.4297 165.386C90.4297 165.051 90.4918 164.68 90.6285 164.321C90.7651 163.961 90.8894 163.652 91.0012 163.367C91.2621 162.834 91.5354 162.327 91.8212 161.856C92.1069 161.385 92.3927 160.927 92.7033 160.481C92.9145 160.135 93.1257 159.775 93.3493 159.404C93.5605 159.045 93.7718 158.673 93.9954 158.314C94.1072 158.128 94.1693 157.967 94.2066 157.819C94.2439 157.67 94.2811 157.521 94.3308 157.373C94.3308 157.348 94.3308 157.311 94.3308 157.286C94.3308 157.261 94.3308 157.224 94.3308 157.199C94.3557 157.125 94.393 157.038 94.4054 156.952C94.4302 156.865 94.4675 156.791 94.5048 156.741C94.6663 156.667 94.8899 156.617 95.1757 156.605C95.449 156.593 95.6851 156.58 95.859 156.58C95.9957 156.58 96.1572 156.58 96.3311 156.58C96.5051 156.58 96.6666 156.58 96.8281 156.543V156.593L96.8529 156.642C96.8653 156.716 96.8778 156.803 96.8902 156.877C96.8902 156.964 96.8902 157.051 96.8529 157.137L96.8902 157.15ZM96.5672 153.447C96.5672 153.261 96.6044 153.075 96.6914 152.877C96.7784 152.679 96.8902 152.506 97.0269 152.345C97.1635 152.184 97.325 152.06 97.499 151.961C97.6729 151.862 97.8593 151.8 98.0332 151.787C98.232 151.775 98.3935 151.787 98.5302 151.862C98.6544 151.936 98.7538 152.035 98.8159 152.159C98.878 152.283 98.9029 152.431 98.9029 152.592C98.9029 152.753 98.878 152.902 98.8159 153.063C98.6917 153.348 98.4805 153.62 98.1699 153.856C97.8593 154.091 97.5611 154.215 97.2753 154.215C97.1138 154.215 96.9647 154.153 96.8281 154.029C96.6914 153.905 96.6169 153.719 96.5672 153.459V153.447Z" fill="white"/>
<path d="M99.1149 156.692C99.3385 156.667 99.5746 156.642 99.8106 156.617C100.047 156.605 100.27 156.593 100.482 156.568C100.618 156.555 100.805 156.531 101.028 156.506C101.252 156.481 101.413 156.543 101.488 156.679C101.513 156.741 101.513 156.815 101.488 156.902C101.463 156.989 101.426 157.088 101.376 157.175C101.326 157.261 101.277 157.36 101.227 157.447C101.177 157.534 101.14 157.62 101.128 157.67C100.879 158.203 100.618 158.723 100.32 159.218C100.034 159.726 99.7361 160.221 99.4379 160.729C99.1397 161.237 98.854 161.732 98.5682 162.252C98.2825 162.773 98.034 163.28 97.8228 163.813C97.7606 163.961 97.7234 164.147 97.6985 164.345C97.6737 164.556 97.6737 164.742 97.6985 164.927C97.7234 165.113 97.8103 165.262 97.9222 165.373C98.0464 165.485 98.2328 165.522 98.4688 165.472C98.8167 165.398 99.1521 165.237 99.4752 164.989C99.7982 164.742 100.084 164.482 100.32 164.209C100.904 163.528 101.413 162.785 101.861 162.005C102.308 161.224 102.681 160.407 102.979 159.577C103.14 159.156 103.289 158.71 103.401 158.265C103.513 157.819 103.538 157.36 103.463 156.902C103.426 156.729 103.426 156.58 103.438 156.432C103.451 156.283 103.525 156.147 103.65 156.01C103.774 155.887 103.935 155.8 104.134 155.726C104.333 155.651 104.519 155.664 104.681 155.726C104.88 155.8 105.016 155.924 105.091 156.085C105.165 156.246 105.203 156.419 105.203 156.617C105.203 156.815 105.178 157.014 105.141 157.212C105.103 157.41 105.066 157.583 105.016 157.732C104.892 158.153 104.755 158.574 104.594 158.983C104.432 159.392 104.246 159.788 104.035 160.184C103.637 160.977 103.153 161.732 102.594 162.463C102.022 163.181 101.451 163.875 100.879 164.531C100.631 164.791 100.345 165.064 100.022 165.336C99.6988 165.609 99.3385 165.869 98.9658 166.104C98.5931 166.327 98.2079 166.5 97.8103 166.624C97.4128 166.736 97.0276 166.748 96.6425 166.661C96.1579 166.55 95.8349 166.327 95.6734 165.98C95.5119 165.633 95.4498 165.237 95.487 164.804C95.5243 164.37 95.6237 163.937 95.7852 163.491C95.9467 163.045 96.1082 162.686 96.2822 162.389C96.7667 161.447 97.2761 160.506 97.7979 159.577C98.3197 158.648 98.7546 157.67 99.1024 156.654L99.1149 156.692Z" fill="white"/>
<path d="M105.318 164.729C105.367 165.076 105.479 165.311 105.678 165.423C105.877 165.534 106.113 165.584 106.374 165.547C106.635 165.51 106.908 165.435 107.194 165.324C107.467 165.2 107.703 165.076 107.877 164.965C108.299 164.705 108.734 164.37 109.169 163.949C109.604 163.528 110.014 163.107 110.399 162.673C110.784 162.24 111.12 161.831 111.43 161.447C111.741 161.063 111.977 160.779 112.163 160.58C112.275 160.457 112.337 160.432 112.387 160.506C112.424 160.568 112.424 160.667 112.387 160.791C112.312 161.014 112.163 161.299 111.927 161.621C111.691 161.943 111.418 162.29 111.107 162.661C110.784 163.033 110.436 163.404 110.064 163.776C109.691 164.16 109.318 164.506 108.958 164.828C108.598 165.15 108.25 165.435 107.939 165.671C107.629 165.918 107.368 166.092 107.169 166.191C106.883 166.364 106.548 166.488 106.175 166.587C105.802 166.686 105.429 166.723 105.082 166.711C104.721 166.698 104.386 166.599 104.075 166.438C103.765 166.265 103.516 166.005 103.33 165.633C103.181 165.311 103.094 164.965 103.094 164.605C103.094 164.234 103.131 163.875 103.206 163.503C103.28 163.132 103.404 162.785 103.553 162.438C103.703 162.091 103.852 161.769 104.026 161.472C104.473 160.618 105.007 159.862 105.653 159.193C106.299 158.525 107.032 157.942 107.852 157.459C108.25 157.199 108.672 156.989 109.107 156.815C109.542 156.654 109.989 156.531 110.449 156.456C110.735 156.394 111.058 156.382 111.393 156.407C111.728 156.444 111.977 156.593 112.151 156.89C112.288 157.1 112.35 157.323 112.337 157.559C112.325 157.794 112.275 158.029 112.176 158.252C112.089 158.475 111.965 158.698 111.815 158.896C111.666 159.094 111.517 159.268 111.368 159.416C111.008 159.813 110.585 160.159 110.126 160.444C109.654 160.729 109.194 160.989 108.722 161.2C108.461 161.311 108.2 161.398 107.952 161.485C107.703 161.571 107.43 161.646 107.156 161.72C107.007 161.745 106.821 161.769 106.61 161.794C106.399 161.807 106.237 161.881 106.125 162.005C106.001 162.129 105.914 162.314 105.839 162.55C105.765 162.785 105.703 162.995 105.628 163.169C105.516 163.417 105.442 163.664 105.392 163.937C105.343 164.209 105.33 164.469 105.355 164.729H105.318ZM106.448 161.311C106.982 161.286 107.467 161.113 107.902 160.803C108.337 160.494 108.747 160.172 109.144 159.825C109.343 159.664 109.529 159.478 109.703 159.292C109.877 159.107 110.039 158.896 110.175 158.686C110.262 158.525 110.374 158.314 110.498 158.054C110.623 157.806 110.672 157.583 110.66 157.385C110.648 157.224 110.585 157.125 110.498 157.088C110.412 157.063 110.287 157.063 110.151 157.125C110.014 157.175 109.865 157.261 109.703 157.373C109.542 157.484 109.393 157.608 109.256 157.732C109.119 157.856 108.995 157.967 108.896 158.091C108.784 158.203 108.722 158.277 108.685 158.302C108.237 158.76 107.84 159.243 107.479 159.751C107.119 160.258 106.771 160.779 106.436 161.311H106.448Z" fill="white"/>
<path d="M124.93 166.216C124.309 166.488 123.638 166.674 122.917 166.773C122.197 166.872 121.526 166.773 120.88 166.513C120.346 166.29 119.911 165.918 119.588 165.423C119.265 164.915 119.041 164.407 118.929 163.875C118.793 163.132 118.805 162.389 118.954 161.658C119.103 160.927 119.302 160.221 119.551 159.54C119.799 158.859 120.072 158.203 120.37 157.571C120.681 156.952 121.054 156.357 121.489 155.788C120.979 155.565 120.52 155.267 120.085 154.896C119.65 154.524 119.29 154.128 119.016 153.67C118.743 153.224 118.557 152.729 118.482 152.196C118.395 151.663 118.445 151.106 118.631 150.524C118.817 149.942 119.128 149.471 119.563 149.112C119.998 148.753 120.495 148.468 121.041 148.295C121.588 148.109 122.172 148.01 122.768 147.998C123.377 147.985 123.936 148.035 124.483 148.159C124.744 148.22 125.03 148.307 125.353 148.406C125.676 148.518 125.961 148.654 126.197 148.815C126.272 148.877 126.346 148.951 126.421 149.05C126.496 149.149 126.471 149.248 126.346 149.36C126.259 149.434 126.135 149.447 125.999 149.397C125.862 149.347 125.75 149.298 125.651 149.273C125.166 149.075 124.632 148.976 124.085 148.964C123.526 148.964 122.98 149.025 122.445 149.174C121.961 149.31 121.501 149.533 121.091 149.843C120.681 150.153 120.408 150.574 120.271 151.094C120.11 151.614 120.085 152.159 120.221 152.729C120.358 153.298 120.607 153.781 120.954 154.178C121.004 154.252 121.066 154.339 121.166 154.438C121.253 154.537 121.364 154.636 121.476 154.722C121.588 154.809 121.7 154.883 121.824 154.933C121.936 154.983 122.048 154.983 122.16 154.933C122.271 154.883 122.371 154.797 122.458 154.673C122.545 154.549 122.632 154.438 122.706 154.363C122.83 154.215 122.955 154.078 123.067 153.955C123.191 153.831 123.327 153.707 123.476 153.571C123.899 153.15 124.359 152.753 124.831 152.382C125.303 152.023 125.787 151.663 126.272 151.304C127.316 150.574 128.384 149.892 129.502 149.273C130.62 148.654 131.776 148.183 132.981 147.886C133.403 147.762 133.925 147.663 134.534 147.564C135.143 147.477 135.739 147.453 136.311 147.502C136.882 147.552 137.391 147.713 137.839 147.985C138.286 148.245 138.547 148.691 138.646 149.298C138.758 149.868 138.721 150.388 138.547 150.896C138.373 151.403 138.112 151.862 137.777 152.295C137.441 152.729 137.056 153.125 136.621 153.472C136.186 153.818 135.751 154.128 135.329 154.388C134.198 155.131 133.006 155.713 131.763 156.122C130.521 156.531 129.229 156.766 127.875 156.828C127.253 156.877 126.62 156.877 125.999 156.828C125.377 156.778 124.756 156.704 124.16 156.58C124.023 156.555 123.862 156.642 123.688 156.865C123.514 157.088 123.34 157.348 123.166 157.645C122.992 157.943 122.843 158.24 122.719 158.537C122.582 158.834 122.495 159.045 122.433 159.169C122.309 159.429 122.197 159.751 122.073 160.122C121.961 160.506 121.861 160.902 121.799 161.324C121.725 161.745 121.7 162.166 121.7 162.587C121.7 163.008 121.75 163.417 121.861 163.788C121.973 164.16 122.135 164.482 122.383 164.742C122.619 165.014 122.942 165.2 123.352 165.299C123.961 165.448 124.557 165.423 125.141 165.225C125.725 165.014 126.272 164.717 126.794 164.308C127.316 163.9 127.788 163.454 128.21 162.958C128.632 162.463 129.018 162.005 129.328 161.571C129.726 161.063 130.099 160.556 130.446 160.023C130.794 159.503 131.142 158.958 131.478 158.413C131.602 158.165 131.738 158.042 131.9 158.042C132.062 158.042 132.26 158.042 132.509 158.042H133.49C133.701 158.042 133.938 158.042 134.174 158.017C133.59 159.008 133.031 160.011 132.484 161.039C131.937 162.067 131.391 163.095 130.832 164.11C130.272 165.126 129.689 166.141 129.08 167.12C128.471 168.11 127.8 169.052 127.079 169.956C126.272 170.959 125.353 171.764 124.346 172.371C123.327 172.978 122.209 173.448 120.967 173.795C120.52 173.919 119.998 174.005 119.401 174.08C118.793 174.154 118.209 174.142 117.625 174.055C117.041 173.968 116.519 173.783 116.059 173.498C115.587 173.213 115.277 172.779 115.115 172.197C115.041 171.974 115.016 171.727 115.041 171.467C115.065 171.207 115.14 170.959 115.239 170.724C115.339 170.488 115.475 170.278 115.662 170.092C115.848 169.906 116.059 169.77 116.308 169.683C116.581 169.597 116.83 169.584 117.041 169.658C117.252 169.733 117.426 169.857 117.563 170.03C117.699 170.191 117.799 170.402 117.848 170.649C117.898 170.897 117.898 171.132 117.848 171.38C117.824 171.491 117.774 171.578 117.699 171.652C117.637 171.727 117.563 171.801 117.488 171.875C117.426 171.95 117.364 172.024 117.302 172.111C117.252 172.197 117.215 172.284 117.202 172.395C117.178 172.606 117.24 172.779 117.401 172.916C117.563 173.052 117.737 173.163 117.935 173.238C118.47 173.448 119.016 173.498 119.563 173.361C120.11 173.225 120.631 173.039 121.116 172.804C121.7 172.532 122.222 172.197 122.694 171.801C123.166 171.405 123.601 170.971 123.998 170.501C124.396 170.03 124.769 169.535 125.104 169.014C125.452 168.494 125.775 167.974 126.098 167.466C126.433 166.897 126.769 166.339 127.092 165.77C127.415 165.2 127.75 164.63 128.086 164.048C127.601 164.457 127.092 164.853 126.545 165.225C126.011 165.596 125.452 165.918 124.868 166.191L124.93 166.216ZM124.284 155.961C125.253 156.171 126.247 156.258 127.303 156.209C128.347 156.159 129.378 155.998 130.372 155.713C131.366 155.428 132.322 155.02 133.217 154.487C134.111 153.955 134.882 153.311 135.54 152.543C135.677 152.394 135.826 152.221 135.975 152.023C136.124 151.824 136.261 151.614 136.385 151.403C136.509 151.193 136.596 150.97 136.671 150.735C136.733 150.499 136.758 150.264 136.733 150.041C136.671 149.558 136.46 149.187 136.074 148.939C135.702 148.691 135.292 148.555 134.845 148.505C133.838 148.381 132.869 148.518 131.937 148.914C131.005 149.31 130.136 149.806 129.328 150.4C128.322 151.143 127.415 151.998 126.595 152.964C125.787 153.93 125.017 154.921 124.284 155.961Z" fill="white"/>
<path d="M136.412 157.633C136.897 157.323 137.419 157.063 137.965 156.828C138.512 156.593 139.071 156.456 139.667 156.432C140.202 156.407 140.699 156.493 141.171 156.704C141.643 156.915 141.978 157.249 142.19 157.707C142.301 157.992 142.351 158.326 142.351 158.71C142.351 159.094 142.314 159.441 142.227 159.775C142.14 160.097 142.053 160.407 141.966 160.704C141.78 161.15 141.556 161.608 141.27 162.091C140.984 162.574 140.674 163.033 140.338 163.478C140.028 163.85 139.692 164.197 139.332 164.556C138.972 164.903 138.574 165.225 138.152 165.522C137.729 165.819 137.282 166.067 136.81 166.277C136.338 166.488 135.841 166.612 135.319 166.674C134.81 166.736 134.313 166.674 133.791 166.513C133.281 166.352 132.871 166.079 132.561 165.708C132.213 165.188 132.039 164.655 132.039 164.11C132.039 163.912 132.064 163.701 132.101 163.454C132.138 163.218 132.188 162.995 132.25 162.785C132.586 161.782 133.12 160.828 133.865 159.936C134.611 159.045 135.456 158.277 136.4 157.645H136.425L136.412 157.633ZM134.313 164.209C134.275 164.345 134.251 164.469 134.238 164.593C134.226 164.717 134.201 164.791 134.201 164.816C134.201 165.014 134.238 165.188 134.325 165.336C134.412 165.485 134.586 165.609 134.847 165.732C135.108 165.807 135.381 165.782 135.667 165.646C135.953 165.51 136.214 165.373 136.45 165.237C136.437 165.237 136.45 165.225 136.499 165.188C136.549 165.15 136.586 165.138 136.611 165.138C137.12 164.717 137.58 164.234 138.015 163.689C138.437 163.144 138.823 162.587 139.17 162.017C139.518 161.447 139.804 160.878 140.053 160.308C140.301 159.738 140.487 159.206 140.624 158.698C140.649 158.624 140.674 158.537 140.686 158.425C140.699 158.314 140.711 158.203 140.711 158.079C140.711 157.868 140.674 157.67 140.612 157.484C140.55 157.298 140.413 157.187 140.214 157.137C139.966 157.113 139.717 157.162 139.444 157.298C139.17 157.435 138.947 157.571 138.773 157.707C138.239 158.103 137.717 158.562 137.22 159.094C136.723 159.627 136.276 160.184 135.878 160.766C135.481 161.348 135.145 161.918 134.872 162.5C134.598 163.082 134.412 163.615 134.325 164.098V164.184L134.313 164.209Z" fill="white"/>
<path d="M146.229 163.664C145.819 164.122 145.396 164.593 144.962 165.076C144.527 165.559 144.042 165.955 143.508 166.265C143.297 166.389 143.073 166.488 142.837 166.55C142.613 166.612 142.377 166.649 142.166 166.624C141.943 166.612 141.744 166.55 141.545 166.426C141.359 166.315 141.197 166.129 141.073 165.869C140.961 165.621 140.911 165.361 140.924 165.088C140.924 164.816 140.973 164.544 141.036 164.271C141.098 163.999 141.197 163.726 141.321 163.466C141.446 163.206 141.57 162.958 141.682 162.735C142.029 162.153 142.39 161.571 142.75 160.964C143.11 160.358 143.471 159.763 143.819 159.169C143.955 158.946 144.079 158.71 144.191 158.475C144.303 158.24 144.415 157.98 144.527 157.707C144.539 157.645 144.552 157.571 144.576 157.472C144.589 157.373 144.601 157.274 144.626 157.175C144.639 157.076 144.663 156.976 144.688 156.89C144.713 156.803 144.763 156.729 144.825 156.679C144.875 156.679 144.974 156.679 145.148 156.679C145.309 156.679 145.508 156.667 145.732 156.654C145.955 156.654 146.179 156.654 146.39 156.654H146.925C146.925 156.654 147.012 156.741 147.012 156.815V157.001C147.024 157.274 146.974 157.559 146.862 157.856C146.751 158.153 146.626 158.413 146.49 158.648C146.167 159.292 145.831 159.899 145.459 160.494C145.123 161.101 144.775 161.695 144.402 162.277C144.03 162.859 143.682 163.441 143.322 164.036C143.235 164.197 143.135 164.42 143.036 164.692C142.936 164.965 142.974 165.175 143.135 165.349C143.247 165.46 143.371 165.497 143.508 165.472C143.657 165.448 143.794 165.398 143.943 165.324C144.092 165.249 144.216 165.163 144.328 165.051C144.44 164.94 144.539 164.853 144.614 164.779C145.098 164.333 145.545 163.838 145.943 163.268C146.341 162.711 146.726 162.153 147.086 161.621C147.484 161.039 147.856 160.444 148.192 159.837C148.54 159.23 148.838 158.599 149.099 157.967C149.173 157.757 149.273 157.521 149.385 157.286C149.496 157.038 149.596 156.865 149.67 156.741C149.919 156.729 150.229 156.704 150.602 156.667C150.975 156.642 151.298 156.617 151.559 156.617H152.018C152.006 156.729 151.981 156.828 151.944 156.939C151.919 157.026 151.882 157.137 151.869 157.249C151.844 157.36 151.807 157.459 151.77 157.534C151.497 158.141 151.174 158.735 150.813 159.305C150.453 159.875 150.093 160.444 149.732 161.014C149.372 161.584 149.049 162.166 148.751 162.76C148.453 163.355 148.204 163.974 148.043 164.63C147.993 165.014 148.068 165.225 148.254 165.287C148.44 165.336 148.664 165.262 148.925 165.051C149.608 164.469 150.229 163.813 150.776 163.082C151.323 162.351 151.844 161.608 152.329 160.84C152.416 160.766 152.515 160.741 152.627 160.766C152.739 160.791 152.776 160.89 152.739 161.051C152.217 161.893 151.658 162.698 151.049 163.478C150.441 164.259 149.782 165.002 149.049 165.708C148.714 165.98 148.353 166.203 147.981 166.376C147.608 166.55 147.223 166.599 146.825 166.5C146.502 166.426 146.278 166.277 146.154 166.054C146.03 165.832 145.955 165.584 145.943 165.299C145.943 165.014 145.968 164.729 146.018 164.432C146.08 164.135 146.129 163.875 146.179 163.664H146.229Z" fill="white"/>
<path d="M159.42 160.717C159.47 160.828 159.42 161.001 159.259 161.237C158.948 161.658 158.675 162.042 158.439 162.364C158.19 162.686 157.954 162.995 157.73 163.293C157.507 163.578 157.271 163.875 157.035 164.16C156.799 164.444 156.513 164.779 156.202 165.138C156.016 165.324 155.805 165.522 155.544 165.732C155.295 165.943 155.022 166.129 154.736 166.29C154.451 166.451 154.165 166.55 153.867 166.612C153.568 166.661 153.283 166.637 153.009 166.513C152.649 166.327 152.401 166.079 152.301 165.77C152.189 165.46 152.164 165.113 152.214 164.754C152.264 164.395 152.363 164.023 152.512 163.664C152.661 163.305 152.811 162.995 152.947 162.735C153.146 162.351 153.382 162.005 153.655 161.67C153.929 161.348 154.214 161.026 154.513 160.704C154.811 160.395 155.109 160.085 155.395 159.763C155.681 159.441 155.966 159.119 156.215 158.772C156.016 158.747 155.817 158.747 155.618 158.772C155.42 158.809 155.233 158.797 155.047 158.71C154.873 158.661 154.736 158.624 154.637 158.574C154.525 158.525 154.401 158.574 154.252 158.686C153.804 159.367 153.37 160.085 152.935 160.828C152.5 161.571 152.028 162.302 151.531 163.008C151.034 163.714 150.5 164.383 149.916 164.989C149.332 165.609 148.673 166.129 147.94 166.55C147.742 166.575 147.617 166.525 147.58 166.401C147.53 166.277 147.555 166.141 147.642 166.005C148.499 165.46 149.27 164.816 149.941 164.073C150.624 163.33 151.245 162.537 151.804 161.695C152.363 160.853 152.898 159.974 153.37 159.069C153.854 158.165 154.326 157.274 154.798 156.407C154.873 156.382 154.96 156.37 155.034 156.407C155.121 156.432 155.196 156.469 155.283 156.518C155.37 156.568 155.444 156.63 155.519 156.692C155.594 156.754 155.668 156.803 155.73 156.828C155.929 156.915 156.128 156.976 156.327 157.001C156.525 157.026 156.724 157.026 156.923 157.001C157.184 156.952 157.445 156.89 157.693 156.791C157.942 156.692 158.19 156.63 158.439 156.593C158.625 156.58 158.737 156.593 158.799 156.667C158.849 156.741 158.861 156.815 158.849 156.915C158.836 157.014 158.787 157.125 158.712 157.237C158.637 157.348 158.575 157.459 158.513 157.546C157.979 158.215 157.482 158.896 157.01 159.602C156.538 160.308 156.103 161.026 155.668 161.769C155.544 161.955 155.42 162.141 155.308 162.339C155.184 162.537 155.072 162.735 154.96 162.946C154.848 163.156 154.774 163.355 154.711 163.578C154.649 163.788 154.624 164.011 154.649 164.234C154.649 164.383 154.674 164.556 154.736 164.754C154.798 164.952 154.923 165.039 155.097 165.002C155.357 164.952 155.643 164.791 155.954 164.506C156.264 164.222 156.587 163.887 156.923 163.491C157.258 163.094 157.581 162.673 157.892 162.215C158.203 161.757 158.488 161.348 158.749 160.977C158.824 160.853 158.911 160.741 159.01 160.618C159.11 160.506 159.234 160.518 159.383 160.655L159.42 160.717Z" fill="white"/>
<path d="M160.208 158.178C160.27 158.066 160.32 157.93 160.357 157.769C160.395 157.596 160.432 157.435 160.482 157.274C160.531 157.113 160.593 156.976 160.668 156.853C160.743 156.729 160.854 156.654 160.991 156.63H163.004C163.091 156.915 163.116 157.199 163.053 157.447C162.991 157.695 162.904 157.955 162.78 158.178C163.203 157.843 163.637 157.497 164.047 157.137C164.47 156.778 164.954 156.543 165.501 156.419C165.7 156.37 165.899 156.357 166.11 156.382C166.321 156.407 166.507 156.456 166.669 156.555C166.843 156.642 166.979 156.766 167.091 156.927C167.203 157.088 167.265 157.286 167.29 157.509C167.29 157.596 167.29 157.732 167.253 157.905C167.228 158.079 167.253 158.203 167.327 158.264C167.377 158.289 167.452 158.264 167.563 158.165C167.675 158.066 167.799 157.955 167.924 157.831C168.048 157.707 168.16 157.583 168.272 157.472C168.383 157.36 168.445 157.274 168.483 157.249C168.682 157.1 168.905 156.952 169.154 156.803C169.402 156.654 169.651 156.543 169.924 156.444C170.185 156.357 170.458 156.295 170.732 156.283C171.005 156.271 171.278 156.308 171.539 156.419C171.75 156.506 171.924 156.642 172.048 156.791C172.173 156.952 172.26 157.125 172.309 157.311C172.359 157.497 172.384 157.707 172.371 157.918C172.359 158.128 172.322 158.339 172.285 158.537C171.8 159.627 171.228 160.667 170.582 161.646C169.936 162.624 169.352 163.627 168.818 164.68C168.756 164.89 168.744 165.064 168.793 165.2C168.843 165.336 168.992 165.386 169.253 165.361C169.514 165.336 169.762 165.212 170.011 165.002C170.259 164.791 170.471 164.605 170.657 164.444C171.079 164.048 171.489 163.615 171.862 163.156C172.235 162.686 172.595 162.215 172.931 161.707C173.005 161.571 173.104 161.423 173.229 161.249C173.353 161.088 173.49 160.94 173.664 160.816C173.775 160.803 173.85 160.816 173.887 160.865C173.937 160.915 173.949 160.977 173.949 161.063C173.949 161.15 173.924 161.224 173.875 161.311C173.838 161.398 173.8 161.472 173.775 161.534C173.465 162.005 173.142 162.451 172.781 162.884C172.421 163.305 172.061 163.726 171.713 164.135C171.353 164.581 170.955 165.002 170.545 165.398C170.135 165.807 169.663 166.129 169.129 166.364C168.918 166.451 168.694 166.537 168.458 166.587C168.222 166.637 167.986 166.674 167.762 166.661C167.539 166.661 167.315 166.599 167.116 166.488C166.917 166.376 166.756 166.215 166.632 165.98C166.507 165.77 166.445 165.534 166.458 165.299C166.458 165.051 166.507 164.804 166.569 164.556C166.644 164.308 166.731 164.061 166.843 163.825C166.955 163.59 167.054 163.367 167.153 163.169C167.476 162.587 167.812 162.017 168.16 161.46C168.508 160.89 168.855 160.32 169.191 159.751C169.241 159.664 169.328 159.503 169.477 159.268C169.626 159.045 169.738 158.797 169.837 158.537C169.936 158.277 169.986 158.042 169.998 157.843C169.998 157.633 169.899 157.509 169.688 157.472C169.551 157.459 169.402 157.472 169.253 157.546C169.104 157.608 168.942 157.695 168.793 157.794C168.644 157.905 168.495 158.017 168.371 158.141C168.247 158.264 168.135 158.364 168.035 158.463C167.576 158.921 167.166 159.429 166.781 159.998C166.408 160.568 166.048 161.125 165.712 161.695L162.668 166.562H160.519C160.991 165.745 161.463 164.915 161.91 164.098C162.37 163.28 162.83 162.451 163.302 161.608C163.513 161.212 163.737 160.816 163.973 160.407C164.196 159.998 164.433 159.602 164.656 159.206C164.706 159.119 164.768 159.008 164.842 158.896C164.917 158.785 164.992 158.661 165.054 158.537C165.116 158.413 165.166 158.289 165.19 158.178C165.215 158.054 165.215 157.942 165.166 157.831C165.091 157.67 164.979 157.571 164.818 157.571C164.669 157.571 164.495 157.608 164.296 157.707C164.109 157.806 163.911 157.942 163.699 158.103C163.488 158.264 163.302 158.438 163.116 158.611C162.929 158.785 162.78 158.933 162.656 159.082C162.532 159.23 162.445 159.317 162.407 159.367C161.823 160.073 161.302 160.803 160.817 161.559C160.333 162.327 159.86 163.095 159.413 163.887C159.14 164.333 158.867 164.779 158.606 165.225C158.345 165.671 158.084 166.116 157.823 166.562H155.438C156.295 165.175 157.102 163.788 157.873 162.401C158.63 161.014 159.413 159.602 160.208 158.178Z" fill="white"/>
<path d="M173.615 164.729C173.664 165.076 173.776 165.311 173.975 165.423C174.174 165.534 174.41 165.584 174.671 165.547C174.931 165.51 175.205 165.435 175.491 165.324C175.764 165.2 176 165.076 176.174 164.965C176.596 164.705 177.031 164.37 177.466 163.949C177.901 163.528 178.311 163.107 178.696 162.673C179.081 162.24 179.417 161.831 179.727 161.447C180.038 161.063 180.274 160.779 180.46 160.58C180.572 160.457 180.634 160.432 180.684 160.506C180.721 160.568 180.721 160.667 180.684 160.791C180.609 161.014 180.46 161.299 180.224 161.621C179.988 161.943 179.715 162.29 179.404 162.661C179.081 163.033 178.733 163.404 178.361 163.776C177.988 164.16 177.615 164.506 177.255 164.828C176.894 165.15 176.547 165.435 176.236 165.671C175.925 165.918 175.664 166.092 175.466 166.191C175.18 166.364 174.845 166.488 174.472 166.587C174.099 166.686 173.726 166.723 173.378 166.711C173.018 166.698 172.683 166.599 172.372 166.438C172.062 166.265 171.813 166.005 171.627 165.633C171.478 165.311 171.391 164.965 171.391 164.605C171.391 164.234 171.428 163.875 171.502 163.503C171.577 163.132 171.701 162.785 171.85 162.438C171.999 162.091 172.148 161.769 172.322 161.472C172.77 160.618 173.304 159.862 173.95 159.193C174.596 158.525 175.329 157.942 176.149 157.459C176.547 157.199 176.969 156.989 177.404 156.815C177.839 156.654 178.286 156.531 178.746 156.456C179.031 156.394 179.354 156.382 179.69 156.407C180.025 156.444 180.274 156.593 180.448 156.89C180.584 157.1 180.647 157.323 180.634 157.559C180.622 157.794 180.572 158.029 180.473 158.252C180.386 158.475 180.261 158.698 180.112 158.896C179.963 159.094 179.814 159.268 179.665 159.416C179.305 159.813 178.882 160.159 178.423 160.444C177.951 160.729 177.491 160.989 177.019 161.2C176.758 161.311 176.497 161.398 176.248 161.485C176 161.571 175.727 161.646 175.453 161.72C175.304 161.745 175.118 161.769 174.907 161.794C174.695 161.807 174.534 161.881 174.422 162.005C174.298 162.129 174.211 162.314 174.136 162.55C174.062 162.785 174 162.995 173.925 163.169C173.813 163.417 173.739 163.664 173.689 163.937C173.639 164.209 173.627 164.469 173.652 164.729H173.615ZM174.733 161.311C175.267 161.286 175.751 161.113 176.186 160.803C176.621 160.494 177.031 160.172 177.429 159.825C177.627 159.664 177.814 159.478 177.988 159.292C178.162 159.107 178.323 158.896 178.46 158.686C178.547 158.525 178.659 158.314 178.783 158.054C178.907 157.806 178.957 157.583 178.944 157.385C178.932 157.224 178.87 157.125 178.783 157.088C178.696 157.063 178.572 157.063 178.435 157.125C178.298 157.175 178.149 157.261 177.988 157.373C177.826 157.484 177.677 157.608 177.541 157.732C177.404 157.856 177.28 157.967 177.18 158.091C177.068 158.203 177.006 158.277 176.969 158.302C176.522 158.76 176.124 159.243 175.764 159.751C175.404 160.258 175.056 160.779 174.72 161.311H174.733Z" fill="white"/>
<path d="M182.335 154.202H184.285L185.267 152.79L185.515 152.332V152.357C185.714 151.998 185.925 151.601 186.137 151.205C186.348 150.796 186.497 150.425 186.596 150.078C186.596 150.053 186.596 150.016 186.621 150.004C186.634 149.979 186.646 149.954 186.646 149.917C186.671 149.83 186.708 149.731 186.758 149.62C186.808 149.508 186.857 149.434 186.919 149.372C187.031 149.31 187.205 149.261 187.466 149.236C187.727 149.211 188 149.186 188.286 149.186C188.609 149.186 188.895 149.199 189.156 149.236C189.417 149.273 189.528 149.31 189.504 149.372C189.454 149.558 189.379 149.781 189.28 150.053C189.168 150.326 189.019 150.66 188.808 151.032C188.597 151.403 188.336 151.862 188 152.394C187.677 152.914 187.267 153.521 186.795 154.215H188.311V155.02H186.36C185.876 155.75 185.354 156.543 184.807 157.385C184.261 158.227 183.751 159.082 183.254 159.949C182.757 160.816 182.31 161.645 181.9 162.451C181.49 163.256 181.192 163.999 180.993 164.667C180.881 165.064 180.956 165.336 181.217 165.472C181.478 165.609 181.776 165.633 182.124 165.51C182.335 165.435 182.596 165.262 182.882 165.002C183.167 164.742 183.49 164.432 183.826 164.061C184.161 163.701 184.497 163.305 184.845 162.884C185.192 162.463 185.515 162.054 185.826 161.658C186.137 161.262 186.41 160.902 186.646 160.568C186.882 160.246 187.056 159.998 187.18 159.825C187.205 159.8 187.23 159.763 187.255 159.738C187.267 159.713 187.28 159.689 187.304 159.664C187.367 159.664 187.416 159.701 187.441 159.775C187.379 159.974 187.242 160.258 187.019 160.63C186.795 161.001 186.522 161.423 186.186 161.868C185.851 162.314 185.466 162.81 185.043 163.305C184.621 163.813 184.161 164.283 183.664 164.717C183.167 165.15 182.67 165.559 182.149 165.906C181.627 166.253 181.105 166.513 180.596 166.686C180.086 166.76 179.639 166.686 179.229 166.463C178.819 166.24 178.595 165.856 178.533 165.324C178.521 164.94 178.57 164.544 178.682 164.122C178.794 163.701 179.018 163.181 179.341 162.574C179.664 161.955 180.099 161.2 180.633 160.296C181.167 159.391 181.863 158.264 182.683 156.927L183.875 155.007H182.335V154.202Z" fill="white"/>
<path d="M109.404 178.551C109.442 178.464 109.491 178.377 109.541 178.291C109.591 178.204 109.616 178.117 109.628 178.018C109.628 177.956 109.628 177.907 109.616 177.857C109.603 177.808 109.616 177.77 109.665 177.733C109.715 177.684 109.802 177.647 109.901 177.622C110.001 177.597 110.125 177.572 110.237 177.56C110.349 177.56 110.473 177.535 110.585 177.535C110.696 177.535 110.783 177.535 110.858 177.535C110.995 177.548 111.057 177.609 111.069 177.709C111.069 177.808 111.069 177.907 111.032 178.031C110.995 178.142 110.945 178.266 110.883 178.377C110.821 178.489 110.771 178.575 110.746 178.625C110.262 179.492 109.765 180.346 109.268 181.189C108.771 182.031 108.286 182.885 107.814 183.777C107.702 183.975 107.603 184.173 107.503 184.372C107.404 184.57 107.305 184.768 107.205 184.966C107.081 185.152 106.957 185.35 106.845 185.536C106.733 185.721 106.634 185.92 106.572 186.118C106.559 186.192 106.547 186.266 106.547 186.341C106.547 186.415 106.559 186.489 106.584 186.539C106.609 186.588 106.646 186.626 106.696 186.65C106.746 186.675 106.82 186.663 106.92 186.626C107.143 186.465 107.354 186.279 107.566 186.068C107.777 185.858 107.976 185.635 108.162 185.399C108.348 185.164 108.522 184.929 108.696 184.694C108.87 184.458 109.019 184.223 109.156 184.012C109.181 183.975 109.218 183.938 109.268 183.889C109.317 183.839 109.367 183.851 109.429 183.913C109.454 183.938 109.454 184 109.417 184.087C109.056 184.681 108.646 185.263 108.187 185.833C107.727 186.403 107.193 186.861 106.584 187.245C106.398 187.331 106.211 187.369 106 187.344C105.789 187.331 105.627 187.232 105.516 187.047C105.416 186.886 105.366 186.7 105.366 186.502C105.366 186.304 105.379 186.118 105.429 185.944C105.292 186.118 105.155 186.279 104.981 186.44C104.82 186.601 104.658 186.749 104.497 186.898C104.348 187.034 104.174 187.17 103.987 187.307C103.801 187.443 103.59 187.517 103.379 187.53C103.192 187.554 103.018 187.53 102.894 187.455C102.77 187.381 102.646 187.282 102.571 187.146C102.484 187.022 102.434 186.873 102.397 186.7C102.36 186.539 102.347 186.378 102.372 186.217C102.397 185.833 102.484 185.461 102.633 185.102C102.782 184.743 102.969 184.396 103.205 184.062C103.441 183.728 103.689 183.43 103.975 183.145C104.261 182.861 104.547 182.613 104.857 182.402C105.267 182.093 105.714 181.87 106.186 181.734C106.298 181.721 106.423 181.696 106.547 181.672C106.671 181.647 106.795 181.672 106.907 181.709C107.006 181.758 107.093 181.82 107.143 181.907C107.205 181.994 107.255 182.093 107.317 182.204C108.038 181.003 108.721 179.802 109.392 178.575L109.404 178.551ZM104.633 186.403C105.193 185.845 105.677 185.226 106.112 184.545C106.534 183.864 106.845 183.133 107.031 182.378C107.019 182.155 106.932 182.018 106.77 181.981C106.621 181.944 106.46 181.981 106.298 182.093C106.124 182.217 105.963 182.353 105.826 182.501C105.677 182.65 105.54 182.811 105.416 182.972C105.342 183.059 105.23 183.195 105.081 183.368C104.932 183.542 104.783 183.752 104.621 183.975C104.46 184.198 104.286 184.433 104.124 184.694C103.963 184.941 103.813 185.189 103.702 185.424C103.59 185.66 103.515 185.882 103.478 186.093C103.441 186.304 103.466 186.465 103.553 186.601C103.615 186.7 103.702 186.749 103.801 186.762C103.9 186.774 104.012 186.762 104.112 186.725C104.211 186.687 104.323 186.65 104.422 186.576C104.522 186.514 104.596 186.452 104.646 186.403H104.633Z" fill="white"/>
<path d="M109.069 186.254C109.094 186.452 109.168 186.588 109.28 186.65C109.392 186.712 109.528 186.737 109.678 186.725C109.827 186.712 109.988 186.663 110.137 186.601C110.299 186.526 110.423 186.465 110.535 186.39C110.783 186.242 111.019 186.043 111.268 185.808C111.516 185.573 111.752 185.325 111.964 185.077C112.175 184.83 112.374 184.594 112.547 184.384C112.721 184.173 112.858 184 112.97 183.888C113.032 183.814 113.069 183.802 113.094 183.839C113.119 183.876 113.119 183.938 113.094 184C113.044 184.136 112.97 184.285 112.833 184.471C112.709 184.656 112.547 184.854 112.361 185.065C112.175 185.276 111.976 185.486 111.765 185.697C111.554 185.907 111.342 186.118 111.131 186.291C110.92 186.465 110.734 186.638 110.547 186.774C110.373 186.91 110.224 187.009 110.112 187.071C109.951 187.17 109.752 187.245 109.541 187.294C109.33 187.356 109.118 187.369 108.92 187.369C108.708 187.369 108.522 187.307 108.348 187.208C108.174 187.109 108.025 186.96 107.926 186.749C107.839 186.564 107.789 186.365 107.789 186.167C107.789 185.957 107.801 185.746 107.851 185.548C107.901 185.338 107.963 185.139 108.05 184.941C108.137 184.743 108.224 184.557 108.311 184.384C108.559 183.901 108.87 183.467 109.243 183.083C109.603 182.7 110.025 182.378 110.498 182.093C110.721 181.944 110.957 181.82 111.206 181.734C111.454 181.634 111.715 181.573 111.976 181.523C112.137 181.486 112.324 181.473 112.51 181.498C112.697 181.511 112.846 181.61 112.945 181.771C113.02 181.895 113.057 182.018 113.044 182.155C113.032 182.291 113.007 182.427 112.957 182.551C112.908 182.687 112.833 182.799 112.759 182.91C112.672 183.022 112.597 183.121 112.498 183.207C112.287 183.43 112.051 183.628 111.79 183.789C111.529 183.95 111.255 184.099 110.982 184.223C110.833 184.285 110.684 184.334 110.547 184.384C110.398 184.433 110.249 184.483 110.1 184.52C110.013 184.533 109.914 184.545 109.789 184.557C109.665 184.557 109.578 184.607 109.516 184.669C109.441 184.743 109.392 184.842 109.354 184.978C109.317 185.115 109.28 185.238 109.23 185.325C109.168 185.461 109.118 185.61 109.094 185.759C109.069 185.907 109.056 186.056 109.069 186.204V186.254ZM109.702 184.297C110.013 184.285 110.286 184.186 110.535 184.012C110.783 183.839 111.019 183.653 111.243 183.455C111.355 183.356 111.467 183.257 111.566 183.145C111.665 183.034 111.752 182.922 111.827 182.799C111.877 182.7 111.939 182.588 112.013 182.439C112.088 182.291 112.113 182.167 112.1 182.056C112.1 181.956 112.063 181.907 112.013 181.882C111.964 181.87 111.901 181.882 111.814 181.907C111.74 181.932 111.653 181.981 111.554 182.056C111.454 182.13 111.38 182.192 111.293 182.254C111.206 182.316 111.144 182.39 111.081 182.452C111.019 182.514 110.982 182.563 110.97 182.576C110.721 182.836 110.485 183.108 110.286 183.405C110.075 183.703 109.889 184 109.69 184.297H109.702Z" fill="white"/>
<path d="M115.991 181.61C115.991 181.684 115.954 181.746 115.929 181.808C115.892 181.87 115.855 181.944 115.818 182.006L115.681 182.204C115.606 182.402 115.557 182.625 115.507 182.861C115.457 183.096 115.408 183.331 115.37 183.542C115.296 183.889 115.209 184.26 115.122 184.607C115.035 184.966 114.911 185.3 114.774 185.622C114.625 185.944 114.438 186.242 114.202 186.502C113.966 186.762 113.668 186.985 113.308 187.146C113.159 187.22 112.997 187.27 112.836 187.307C112.674 187.344 112.5 187.369 112.326 187.369C112.103 187.369 111.892 187.331 111.705 187.257C111.569 187.195 111.469 187.109 111.382 186.997C111.295 186.886 111.258 186.762 111.258 186.65C111.258 186.576 111.27 186.489 111.308 186.415C111.345 186.341 111.395 186.266 111.482 186.192C111.531 186.143 111.618 186.105 111.718 186.068C111.817 186.031 111.916 186.019 112.003 186.068C112.053 186.105 112.078 186.155 112.078 186.217C112.078 186.279 112.078 186.353 112.053 186.415C112.053 186.44 112.053 186.477 112.053 186.526C112.053 186.626 112.078 186.725 112.14 186.824C112.19 186.923 112.277 186.972 112.364 186.948C112.438 186.948 112.513 186.923 112.587 186.873C112.662 186.824 112.736 186.762 112.811 186.687C112.885 186.613 112.948 186.551 113.01 186.477C113.072 186.403 113.122 186.353 113.159 186.304C113.469 185.759 113.705 185.177 113.879 184.557C114.053 183.938 114.202 183.331 114.327 182.737C114.178 182.898 114.041 183.059 113.904 183.22C113.768 183.381 113.643 183.542 113.494 183.728C113.022 184.31 112.55 184.879 112.053 185.449C111.556 186.019 111.034 186.539 110.463 187.034C110.388 187.084 110.326 187.133 110.252 187.183C110.177 187.232 110.102 187.27 110.003 187.282C109.904 187.307 109.842 187.282 109.792 187.232C109.742 187.183 109.73 187.096 109.755 186.972C109.779 186.886 109.829 186.824 109.904 186.774C109.978 186.725 110.053 186.687 110.127 186.65L110.276 186.564C110.612 186.353 110.922 186.118 111.233 185.833C111.544 185.56 111.842 185.263 112.115 184.954C112.389 184.644 112.662 184.322 112.923 184C113.184 183.678 113.432 183.356 113.668 183.046C113.817 182.848 113.966 182.65 114.103 182.464C114.252 182.278 114.389 182.093 114.538 181.919C114.612 181.82 114.687 181.746 114.774 181.696C114.861 181.647 114.948 181.61 115.047 181.585C115.147 181.56 115.246 181.548 115.358 181.548C115.47 181.548 115.581 181.548 115.693 181.548C115.693 181.548 115.78 181.548 115.83 181.548C115.88 181.548 115.929 181.548 115.967 181.548L115.991 181.573V181.61Z" fill="white"/>
<path d="M121.961 178.551C122.011 178.464 122.048 178.377 122.098 178.291C122.148 178.204 122.173 178.117 122.185 178.018C122.185 177.956 122.185 177.907 122.173 177.857C122.16 177.808 122.173 177.77 122.222 177.733C122.272 177.684 122.359 177.647 122.458 177.622C122.57 177.597 122.682 177.572 122.794 177.56C122.906 177.56 123.03 177.535 123.142 177.535C123.253 177.535 123.353 177.535 123.415 177.535C123.552 177.548 123.614 177.609 123.626 177.709C123.639 177.808 123.626 177.907 123.589 178.031C123.552 178.154 123.502 178.266 123.44 178.377C123.378 178.489 123.328 178.575 123.303 178.625C122.819 179.492 122.322 180.346 121.825 181.189C121.328 182.031 120.843 182.885 120.371 183.777C120.259 183.975 120.147 184.173 120.06 184.372C119.961 184.57 119.862 184.768 119.762 184.966C119.638 185.152 119.526 185.35 119.402 185.536C119.29 185.721 119.191 185.92 119.129 186.118C119.116 186.192 119.104 186.266 119.104 186.341C119.104 186.415 119.116 186.489 119.141 186.539C119.166 186.588 119.203 186.626 119.253 186.65C119.303 186.675 119.377 186.663 119.477 186.626C119.688 186.465 119.911 186.279 120.123 186.068C120.334 185.858 120.533 185.635 120.719 185.399C120.905 185.164 121.079 184.929 121.253 184.694C121.427 184.458 121.576 184.223 121.713 184.012C121.738 183.975 121.775 183.938 121.825 183.889C121.874 183.839 121.924 183.851 121.986 183.913C122.011 183.938 122.011 184 121.974 184.087C121.613 184.681 121.203 185.263 120.744 185.833C120.284 186.403 119.75 186.861 119.141 187.245C118.955 187.331 118.768 187.369 118.557 187.344C118.346 187.331 118.184 187.232 118.073 187.047C117.973 186.886 117.923 186.7 117.923 186.502C117.923 186.304 117.936 186.118 117.986 185.944C117.849 186.118 117.712 186.279 117.538 186.44C117.364 186.601 117.215 186.749 117.054 186.898C116.905 187.034 116.731 187.17 116.544 187.307C116.358 187.443 116.147 187.517 115.936 187.53C115.749 187.554 115.575 187.53 115.451 187.455C115.314 187.381 115.203 187.282 115.128 187.146C115.041 187.022 114.991 186.873 114.954 186.7C114.917 186.539 114.917 186.378 114.929 186.217C114.954 185.833 115.041 185.461 115.19 185.102C115.339 184.743 115.526 184.396 115.762 184.062C115.998 183.728 116.246 183.43 116.532 183.145C116.818 182.861 117.104 182.613 117.414 182.402C117.824 182.093 118.271 181.87 118.743 181.734C118.855 181.721 118.98 181.696 119.104 181.672C119.228 181.647 119.352 181.672 119.464 181.709C119.563 181.758 119.65 181.82 119.713 181.907C119.762 181.994 119.824 182.093 119.887 182.204C120.595 181.003 121.29 179.802 121.961 178.575V178.551ZM117.19 186.403C117.75 185.845 118.234 185.226 118.669 184.545C119.091 183.864 119.402 183.133 119.588 182.378C119.576 182.155 119.489 182.018 119.327 181.981C119.178 181.944 119.017 181.981 118.855 182.093C118.681 182.217 118.52 182.353 118.383 182.501C118.234 182.65 118.097 182.811 117.973 182.972C117.899 183.059 117.787 183.195 117.638 183.368C117.489 183.542 117.34 183.752 117.178 183.975C117.017 184.198 116.843 184.433 116.681 184.694C116.52 184.941 116.37 185.189 116.259 185.424C116.147 185.66 116.072 185.882 116.035 186.093C115.998 186.304 116.023 186.465 116.11 186.601C116.172 186.7 116.259 186.749 116.358 186.762C116.457 186.762 116.569 186.762 116.669 186.725C116.768 186.687 116.88 186.65 116.979 186.576C117.079 186.514 117.153 186.452 117.203 186.403H117.19Z" fill="white"/>
<path d="M121.631 186.254C121.656 186.452 121.731 186.588 121.842 186.65C121.954 186.712 122.091 186.737 122.24 186.725C122.389 186.712 122.551 186.663 122.7 186.601C122.861 186.526 122.985 186.465 123.097 186.39C123.346 186.242 123.582 186.043 123.83 185.808C124.079 185.573 124.315 185.325 124.526 185.077C124.737 184.83 124.936 184.594 125.11 184.384C125.284 184.173 125.421 184 125.532 183.888C125.595 183.814 125.632 183.802 125.657 183.839C125.681 183.876 125.681 183.938 125.657 184C125.607 184.136 125.532 184.285 125.396 184.471C125.271 184.656 125.11 184.854 124.924 185.065C124.737 185.276 124.538 185.486 124.327 185.697C124.116 185.907 123.905 186.118 123.694 186.291C123.482 186.465 123.296 186.638 123.11 186.774C122.936 186.91 122.787 187.009 122.675 187.071C122.513 187.17 122.315 187.245 122.103 187.294C121.892 187.356 121.681 187.369 121.482 187.369C121.271 187.369 121.085 187.307 120.911 187.208C120.737 187.109 120.588 186.96 120.488 186.749C120.401 186.564 120.352 186.365 120.352 186.167C120.352 185.957 120.364 185.746 120.414 185.548C120.463 185.338 120.525 185.139 120.612 184.941C120.699 184.743 120.786 184.557 120.873 184.384C121.122 183.901 121.432 183.467 121.805 183.083C122.165 182.7 122.588 182.378 123.06 182.093C123.284 181.944 123.52 181.82 123.768 181.734C124.017 181.634 124.278 181.573 124.538 181.523C124.7 181.486 124.886 181.473 125.073 181.498C125.259 181.511 125.408 181.61 125.508 181.771C125.582 181.895 125.619 182.018 125.607 182.155C125.595 182.291 125.57 182.427 125.52 182.551C125.47 182.687 125.396 182.799 125.321 182.91C125.234 183.022 125.16 183.121 125.06 183.207C124.849 183.43 124.613 183.628 124.352 183.789C124.091 183.95 123.818 184.099 123.545 184.223C123.395 184.285 123.246 184.334 123.11 184.384C122.961 184.433 122.812 184.483 122.662 184.52C122.575 184.533 122.476 184.545 122.352 184.557C122.228 184.557 122.141 184.607 122.079 184.669C122.004 184.743 121.954 184.842 121.917 184.978C121.88 185.115 121.842 185.238 121.793 185.325C121.731 185.461 121.681 185.61 121.656 185.759C121.631 185.907 121.619 186.056 121.631 186.204V186.254ZM122.265 184.297C122.575 184.285 122.849 184.186 123.097 184.012C123.346 183.839 123.582 183.653 123.805 183.455C123.917 183.356 124.029 183.257 124.128 183.145C124.228 183.034 124.315 182.922 124.389 182.799C124.439 182.7 124.501 182.588 124.576 182.439C124.65 182.291 124.675 182.167 124.663 182.056C124.663 181.956 124.625 181.907 124.576 181.882C124.526 181.87 124.464 181.882 124.377 181.907C124.302 181.932 124.215 181.981 124.116 182.056C124.017 182.13 123.942 182.192 123.855 182.254C123.768 182.316 123.706 182.39 123.644 182.452C123.582 182.514 123.545 182.563 123.532 182.576C123.284 182.836 123.048 183.108 122.849 183.405C122.638 183.703 122.451 184 122.252 184.297H122.265Z" fill="white"/>
<path d="M128.363 183.827C128.984 183.393 129.319 183.158 129.617 182.935C133.183 180.136 135.395 176.705 136.165 176.705H136.239C136.649 176.705 136.885 176.903 137.084 177.126H136.972C136.252 177.238 134.624 179.356 132.947 182.056C131.916 183.74 130.152 186.65 129.903 188.112C129.841 188.421 129.841 188.681 130.139 188.719C129.829 188.83 129.555 188.731 129.319 188.545C129.046 188.335 129.021 188.025 129.071 187.691C129.245 186.663 129.891 185.127 130.723 183.666C131.195 182.836 131.605 182.142 132.028 181.498C130.413 182.885 128.947 183.864 128.375 183.864C128.313 183.864 128.363 183.814 128.363 183.814V183.827Z" fill="white"/>
<path d="M141.795 181.201C140.205 182.799 138.329 183.901 136.813 183.938C136.105 183.95 135.471 183.566 135.434 182.737C135.285 180.185 140.006 176.755 142.714 176.606C143.199 176.582 144.28 176.606 144.317 177.25C144.317 177.547 144.081 177.832 143.832 177.981C143.944 177.795 144.056 177.609 144.056 177.473C144.056 177.213 143.634 177.151 143.422 177.164C140.925 177.312 136.241 181.04 136.241 182.972C136.241 183.492 136.738 183.616 137.285 183.529C139.844 183.195 142.963 179.108 142.938 178.179C142.938 177.696 143.87 178.241 143.857 178.514C143.808 180.309 140.316 188.013 134.924 188.756C134.316 188.83 133.148 188.644 133.011 187.79C132.763 186.328 135.036 184.396 136.08 183.975C136.129 183.95 136.142 183.988 136.105 184.012C135.396 184.421 133.297 186.328 133.533 187.48C133.645 188.05 134.539 188.112 135.26 187.876C137.856 186.997 140.354 184.173 141.82 181.213L141.795 181.201Z" fill="white"/>
<path d="M149.99 181.201C148.4 182.799 146.524 183.901 145.008 183.938C144.3 183.95 143.666 183.566 143.629 182.737C143.48 180.185 148.201 176.755 150.91 176.606C151.394 176.582 152.475 176.606 152.512 177.25C152.512 177.547 152.276 177.832 152.028 177.981C152.14 177.795 152.251 177.609 152.251 177.473C152.251 177.213 151.829 177.151 151.618 177.164C149.12 177.312 144.437 181.04 144.437 182.972C144.437 183.492 144.934 183.616 145.48 183.529C148.04 183.195 151.158 179.108 151.133 178.179C151.133 177.696 152.065 178.241 152.053 178.514C152.003 180.309 148.512 188.013 143.12 188.756C142.511 188.83 141.343 188.644 141.206 187.79C140.958 186.328 143.231 184.396 144.275 183.975C144.325 183.95 144.337 183.988 144.3 184.012C143.592 184.421 141.492 186.328 141.728 187.48C141.84 188.05 142.734 188.112 143.455 187.876C146.052 186.997 148.549 184.173 150.015 181.213L149.99 181.201Z" fill="white"/>
<path d="M158.195 181.201C156.604 182.799 154.728 183.901 153.225 183.938C152.517 183.95 151.883 183.566 151.834 182.737C151.684 180.185 156.406 176.755 159.114 176.606C159.599 176.582 160.679 176.606 160.717 177.25C160.729 177.547 160.481 177.832 160.232 177.981C160.344 177.795 160.456 177.609 160.456 177.473C160.456 177.213 160.033 177.151 159.81 177.164C157.313 177.312 152.629 181.04 152.629 182.972C152.629 183.492 153.126 183.616 153.672 183.529C156.232 183.195 159.35 179.108 159.325 178.179C159.313 177.696 160.257 178.241 160.245 178.514C160.195 180.309 156.704 188.013 151.312 188.756C150.703 188.83 149.535 188.644 149.386 187.79C149.138 186.328 151.411 184.396 152.455 183.975C152.504 183.95 152.517 183.988 152.48 184.012C151.771 184.421 149.672 186.328 149.908 187.48C150.02 188.05 150.914 188.112 151.635 187.876C154.231 186.997 156.729 184.173 158.195 181.213V181.201Z" fill="white"/>
<path d="M131.953 92.0681C142.554 92.0681 151.148 83.5013 151.148 72.9337C151.148 62.366 142.554 53.7993 131.953 53.7993C121.352 53.7993 112.758 62.366 112.758 72.9337C112.758 83.5013 121.352 92.0681 131.953 92.0681Z" fill="#E1251B"/>
<path d="M0 81.5162H11.0823L24.4754 119.599L37.0982 81.5162H39.8315L21.9284 135.749H19.2821L0 81.5162Z" fill="white"/>
<path d="M43.4067 100.564C46.8234 96.9104 52.0166 95.6348 56.0296 95.6348C67.2858 95.6348 70.3545 102.855 70.3545 116.119V134.82H60.1171V130.064C57.9802 133.037 54.9114 135.415 50.9109 135.415C44.5125 135.415 38.375 131.588 38.375 125.891C38.375 114.162 60.1171 113.989 59.7816 106.335C59.7816 105.914 59.6947 105.481 59.6077 105.06C58.7504 101.059 56.8744 98.0003 52.7869 98.0003C50.8239 98.0003 49.2088 98.7682 48.8609 99.3626C51.2463 100.044 53.0354 102.248 53.0354 104.886C53.0354 108.119 50.3891 110.67 47.2333 110.67C44.0776 110.67 41.4313 108.119 41.4313 104.886C41.4313 103.276 42.1146 101.567 43.3943 100.552L43.4067 100.564ZM60.1171 119.438C60.1171 117.308 60.291 114.162 60.2041 111.017C57.6447 116.206 49.3703 118.67 49.3703 125.891C49.3703 129.718 51.5072 131.674 54.0666 131.674C56.7999 131.674 58.8374 128.95 60.1171 125.977V119.426V119.438Z" fill="white"/>
<path d="M90.9963 95.7215C93.4687 95.7215 95.9411 96.5761 98.078 98.4462V72.946L108.315 71.0759V134.833H98.078V132.368C95.8666 134.325 93.2202 135.254 90.5739 135.254C83.4922 135.254 76.3359 128.368 76.3359 115.785C76.3359 103.202 83.7531 95.7215 91.0087 95.7215H90.9963ZM94.0775 131.427C95.4441 131.427 96.8853 130.659 98.0904 129.049V102.013C96.9847 100.477 95.6181 99.7218 94.3384 99.7218C90.6733 99.7218 87.0082 105.245 87.0082 115.785C87.0082 126.324 90.4994 131.427 94.0899 131.427H94.0775Z" fill="white"/>
<path d="M125.878 96.4894V134.833H115.641V98.3595L125.878 96.4894Z" fill="white"/>
<path d="M143.786 96.4894V100.49C145.326 98.0251 147.799 96.2417 151.464 96.2417C157.862 96.2417 160.757 99.214 162.124 102.793C163.49 99.1397 166.211 96.2417 170.907 96.2417C182.511 96.2417 182.673 106.013 182.673 111.884V134.833H172.436V109.753C172.436 102.186 170.56 98.954 168.51 98.954C166.124 98.954 163.565 103.029 163.217 109.32V134.82H152.979V109.741C152.979 102.174 151.103 98.9416 149.054 98.9416C146.755 98.9416 144.283 102.768 143.761 108.887V134.82H133.523V98.3471L143.761 96.477L143.786 96.4894Z" fill="white"/>
<path d="M193.258 100.564C196.675 96.9104 201.868 95.6348 205.881 95.6348C217.137 95.6348 220.206 102.855 220.206 116.119V134.82H209.969V130.064C207.832 133.037 204.763 135.415 200.762 135.415C194.364 135.415 188.227 131.588 188.227 125.891C188.227 114.162 209.969 113.989 209.633 106.335C209.633 105.914 209.546 105.481 209.459 105.06C208.602 101.059 206.726 98.0003 202.638 98.0003C200.675 98.0003 199.06 98.7682 198.712 99.3626C201.098 100.044 202.887 102.248 202.887 104.886C202.887 108.119 200.241 110.67 197.085 110.67C193.929 110.67 191.283 108.119 191.283 104.886C191.283 103.276 191.966 101.567 193.246 100.552L193.258 100.564ZM209.969 119.438C209.969 117.308 210.143 114.162 210.056 111.017C207.496 116.206 199.222 118.67 199.222 125.891C199.222 129.718 201.359 131.674 203.918 131.674C206.651 131.674 208.689 128.95 209.969 125.977V119.426V119.438Z" fill="white"/>
<path d="M227.023 134.82V98.3471L237.261 96.477V102.855C239.472 99.115 243.485 96.3036 247.921 96.3036C251.076 96.3036 253.723 98.8549 253.723 102.087C253.723 105.32 251.076 107.871 247.921 107.871C244.765 107.871 242.119 105.233 242.119 102.087C242.119 101.58 242.206 101.072 242.293 100.638C239.907 102.508 237.857 105.741 237.261 110.757V134.808H227.023V134.82Z" fill="white"/>
<path d="M274.001 97.282C274.001 101.022 271.057 103.957 267.23 103.957C263.404 103.957 260.422 101.022 260.422 97.282C260.422 93.5418 263.441 90.6934 267.23 90.6934C271.02 90.6934 274.001 93.6285 274.001 97.282ZM262.112 97.282C262.112 100.217 264.286 102.546 267.268 102.546C270.249 102.546 272.312 100.217 272.312 97.3192C272.312 94.4212 270.175 92.0185 267.23 92.0185C264.286 92.0185 262.112 94.384 262.112 97.282ZM266.174 100.737H264.646V94.1487C265.255 94.0248 266.1 93.9505 267.181 93.9505C268.435 93.9505 268.994 94.1487 269.479 94.4335C269.839 94.7184 270.125 95.2385 270.125 95.8826C270.125 96.6009 269.566 97.1706 268.758 97.4059V97.4802C269.404 97.7155 269.765 98.1985 269.964 99.0902C270.162 100.093 270.287 100.502 270.448 100.737H268.796C268.597 100.502 268.473 99.8952 268.274 99.1274C268.15 98.409 267.752 98.087 266.907 98.087H266.187V100.737H266.174ZM266.224 97.0096H266.944C267.789 97.0096 268.473 96.7247 268.473 96.0436C268.473 95.4367 268.025 95.0404 267.056 95.0404C266.659 95.0404 266.373 95.0776 266.211 95.1147V97.0096H266.224Z" fill="white"/>
<path d="M54.8047 81.5163V39.8664L207.335 2.36548V81.8507" stroke="white" stroke-width="3" stroke-miterlimit="10"/>
<path d="M207.335 149.484V191.134L54.8047 228.635V149.149" stroke="white" stroke-width="3" stroke-miterlimit="10"/>
</g>
<defs>
<clipPath id="clip0_2685_2670">
<rect width="274" height="231" fill="white"/>
</clipPath>
</defs>
</svg>
