<svg width="396" height="335" viewBox="0 0 396 335" fill="none" xmlns="http://www.w3.org/2000/svg">
<path d="M113.679 232.966C112.691 233.038 111.937 232.822 111.434 232.32C110.932 231.817 110.59 231.206 110.411 230.452C110.231 229.697 110.195 228.889 110.285 228.027C110.375 227.165 110.519 226.411 110.716 225.746C111.362 223.734 112.386 221.902 113.787 220.268C115.187 218.634 116.749 217.251 118.455 216.137C119.317 215.562 120.215 215.042 121.148 214.592C122.082 214.143 123.088 213.856 124.147 213.748C125.009 213.641 125.853 213.677 126.679 213.874C127.505 214.072 128.133 214.61 128.582 215.473C129.031 216.407 129.211 217.305 129.139 218.167C129.067 219.047 128.869 219.909 128.546 220.807C128.187 221.705 127.81 222.567 127.397 223.375C126.984 224.183 126.553 224.992 126.086 225.818C125.512 226.788 124.955 227.758 124.398 228.692C123.842 229.643 123.285 230.613 122.747 231.601C122.441 232.176 122.118 232.751 121.795 233.307C121.472 233.864 121.166 234.439 120.843 235.014C120.718 235.301 120.556 235.66 120.376 236.109C120.197 236.558 120.071 237.007 119.999 237.474C119.927 237.941 119.927 238.372 120.035 238.767C120.143 239.163 120.412 239.468 120.843 239.665C121.166 239.827 121.526 239.863 121.885 239.791C122.244 239.719 122.603 239.612 122.962 239.432C123.321 239.252 123.644 239.055 123.968 238.803C124.291 238.57 124.578 238.354 124.847 238.175C125.637 237.6 126.374 236.989 127.038 236.361C127.702 235.732 128.313 235.014 128.887 234.223C130.162 232.463 131.347 230.595 132.407 228.656C133.484 226.716 134.328 224.686 134.974 222.567C135.064 222.262 135.172 221.884 135.298 221.471C135.423 221.058 135.531 220.627 135.603 220.196C135.675 219.765 135.693 219.334 135.693 218.921C135.693 218.508 135.603 218.131 135.441 217.825C135.37 217.7 135.298 217.592 135.208 217.538C135.118 217.484 135.028 217.43 134.957 217.376C134.885 217.322 134.795 217.269 134.723 217.197C134.651 217.125 134.597 217.017 134.579 216.873C134.49 216.424 134.472 215.993 134.526 215.562C134.579 215.131 134.777 214.736 135.136 214.359C135.405 214.072 135.693 213.874 136.034 213.766C136.375 213.659 136.68 213.641 137.004 213.694C137.309 213.766 137.596 213.91 137.829 214.161C138.063 214.413 138.242 214.736 138.35 215.149C138.53 215.922 138.53 216.748 138.386 217.646C138.242 218.544 138.045 219.352 137.829 220.088C137.183 222.136 136.357 224.112 135.334 225.997C134.31 227.883 133.179 229.715 131.976 231.475C131.383 232.355 130.737 233.253 130.055 234.152C129.372 235.05 128.654 235.912 127.882 236.738C127.128 237.564 126.302 238.336 125.44 239.055C124.578 239.773 123.68 240.384 122.729 240.887C122.046 241.264 121.31 241.533 120.52 241.713C119.73 241.893 118.976 241.839 118.222 241.587C117.521 241.336 117.019 240.923 116.749 240.312C116.48 239.701 116.318 239.055 116.264 238.336C116.246 237.564 116.318 236.81 116.516 236.073C116.695 235.337 116.965 234.618 117.27 233.918C117.593 233.218 117.952 232.535 118.347 231.871C118.742 231.188 119.137 230.541 119.514 229.895C120.448 228.386 121.328 226.895 122.19 225.405C123.052 223.914 123.878 222.369 124.668 220.789C124.973 220.232 125.26 219.657 125.548 219.065C125.817 218.472 126.014 217.843 126.086 217.215C126.122 216.73 126.086 216.317 125.925 215.975C125.763 215.634 125.548 215.365 125.242 215.185C124.937 215.006 124.596 214.88 124.201 214.862C123.806 214.826 123.393 214.862 122.98 215.006C122.208 215.221 121.472 215.544 120.771 215.975C120.071 216.407 119.425 216.891 118.832 217.412C118.042 218.095 117.288 218.831 116.57 219.603C115.851 220.376 115.223 221.22 114.702 222.118C114.235 222.89 113.84 223.698 113.517 224.561C113.194 225.405 112.978 226.285 112.871 227.165C112.853 227.452 112.835 227.758 112.835 228.117C112.835 228.476 112.871 228.781 112.943 229.087C113.014 229.392 113.14 229.679 113.32 229.913C113.499 230.164 113.769 230.326 114.11 230.416C114.433 230.506 114.756 230.523 115.079 230.452C115.385 230.38 115.69 230.29 116.013 230.146C116.48 229.949 116.857 229.733 117.162 229.5C117.467 229.266 117.755 228.961 118.042 228.584C118.168 228.422 118.347 228.332 118.563 228.278C118.778 228.242 118.868 228.35 118.85 228.638C118.85 228.817 118.76 229.033 118.599 229.266C118.437 229.518 118.311 229.715 118.222 229.895C117.97 230.272 117.683 230.613 117.324 230.937C116.965 231.26 116.606 231.547 116.229 231.817C115.869 232.068 115.474 232.302 115.025 232.571C114.577 232.822 114.11 232.966 113.661 232.984L113.679 232.966Z" fill="white"/>
<path d="M140.038 227.901C139.715 228.781 139.338 229.589 138.925 230.308C138.512 231.026 138.099 231.727 137.65 232.409C137.47 232.697 137.291 232.984 137.111 233.271C136.932 233.559 136.734 233.864 136.573 234.169C136.267 234.726 135.926 235.283 135.585 235.822C135.226 236.379 134.903 236.917 134.597 237.438C134.49 237.6 134.364 237.779 134.256 237.995C134.131 238.21 134.023 238.444 133.933 238.695C133.843 238.929 133.789 239.18 133.789 239.432C133.789 239.683 133.843 239.899 133.969 240.132C134.095 240.312 134.238 240.402 134.364 240.438C134.633 240.527 134.956 240.474 135.334 240.276C135.711 240.078 136.124 239.791 136.537 239.414C136.95 239.037 137.381 238.606 137.811 238.121C138.242 237.636 138.637 237.151 139.015 236.666C139.392 236.181 139.715 235.714 139.984 235.283C140.253 234.834 140.469 234.475 140.595 234.187H140.559L140.684 233.954L141.008 233.487C141.115 233.325 141.187 233.361 141.241 233.559C141.259 233.613 141.277 233.684 141.241 233.792C141.241 233.9 141.187 234.026 141.133 234.151V234.116C140.954 234.367 140.792 234.636 140.631 234.924C140.469 235.211 140.325 235.498 140.164 235.768C139.715 236.558 139.248 237.33 138.745 238.085C138.242 238.839 137.668 239.504 137.057 240.078C136.447 240.653 135.764 241.12 135.046 241.461C134.31 241.821 133.52 242 132.622 242C132.317 242 132.012 241.946 131.724 241.821C131.437 241.695 131.204 241.461 131.024 241.102C130.809 240.743 130.701 240.33 130.701 239.845C130.701 239.36 130.791 238.821 130.988 238.3C131.186 237.779 131.365 237.33 131.527 236.917C131.904 236.145 132.299 235.409 132.712 234.726C133.125 234.044 133.538 233.379 133.987 232.733C134.292 232.23 134.597 231.709 134.921 231.17C135.226 230.649 135.531 230.11 135.854 229.589C136.016 229.32 136.106 229.087 136.16 228.871C136.213 228.655 136.267 228.44 136.339 228.224C136.339 228.189 136.339 228.135 136.339 228.099C136.339 228.063 136.339 228.009 136.339 227.973C136.375 227.865 136.429 227.74 136.447 227.614C136.483 227.488 136.537 227.38 136.59 227.308C136.824 227.201 137.147 227.129 137.56 227.111C137.955 227.093 138.296 227.075 138.548 227.075C138.745 227.075 138.979 227.075 139.23 227.075C139.481 227.075 139.715 227.075 139.948 227.021V227.093L139.984 227.165C140.002 227.273 140.02 227.398 140.038 227.506C140.038 227.632 140.038 227.757 139.984 227.883L140.038 227.901ZM139.571 222.531C139.571 222.262 139.625 221.992 139.751 221.705C139.876 221.417 140.038 221.166 140.236 220.932C140.433 220.699 140.666 220.519 140.918 220.376C141.169 220.232 141.439 220.142 141.69 220.124C141.977 220.106 142.211 220.124 142.408 220.232C142.588 220.34 142.731 220.483 142.821 220.663C142.911 220.843 142.947 221.058 142.947 221.292C142.947 221.525 142.911 221.741 142.821 221.974C142.642 222.387 142.336 222.782 141.887 223.124C141.439 223.465 141.008 223.644 140.595 223.644C140.361 223.644 140.146 223.555 139.948 223.375C139.751 223.195 139.643 222.926 139.571 222.549V222.531Z" fill="white"/>
<path d="M143.252 227.237C143.575 227.201 143.917 227.165 144.258 227.129C144.599 227.111 144.922 227.093 145.227 227.057C145.425 227.039 145.694 227.003 146.017 226.967C146.341 226.931 146.574 227.021 146.682 227.219C146.718 227.308 146.718 227.416 146.682 227.542C146.646 227.668 146.592 227.811 146.52 227.937C146.448 228.063 146.377 228.207 146.305 228.332C146.233 228.458 146.179 228.584 146.161 228.656C145.802 229.428 145.425 230.182 144.994 230.901C144.581 231.637 144.15 232.355 143.719 233.092C143.288 233.828 142.875 234.547 142.462 235.301C142.049 236.055 141.69 236.792 141.385 237.564C141.295 237.779 141.241 238.049 141.205 238.336C141.169 238.642 141.169 238.911 141.205 239.18C141.241 239.45 141.367 239.665 141.528 239.827C141.708 239.989 141.977 240.043 142.318 239.971C142.821 239.863 143.306 239.629 143.773 239.27C144.24 238.911 144.653 238.534 144.994 238.139C145.838 237.151 146.574 236.073 147.22 234.942C147.867 233.81 148.406 232.625 148.836 231.421C149.07 230.811 149.285 230.164 149.447 229.518C149.609 228.871 149.644 228.207 149.537 227.542C149.483 227.291 149.483 227.075 149.501 226.859C149.519 226.644 149.627 226.446 149.806 226.249C149.986 226.069 150.219 225.943 150.506 225.836C150.794 225.728 151.063 225.746 151.296 225.836C151.584 225.943 151.781 226.123 151.889 226.357C151.997 226.59 152.051 226.842 152.051 227.129C152.051 227.416 152.015 227.704 151.961 227.991C151.907 228.278 151.853 228.53 151.781 228.745C151.602 229.356 151.404 229.967 151.171 230.559C150.937 231.152 150.668 231.727 150.363 232.302C149.788 233.451 149.088 234.547 148.28 235.606C147.454 236.648 146.628 237.654 145.802 238.606C145.443 238.983 145.03 239.378 144.563 239.773C144.096 240.168 143.575 240.545 143.037 240.887C142.498 241.21 141.941 241.461 141.367 241.641C140.792 241.803 140.236 241.821 139.679 241.695C138.979 241.533 138.512 241.21 138.278 240.707C138.045 240.204 137.955 239.629 138.009 239.001C138.063 238.372 138.207 237.744 138.44 237.097C138.673 236.45 138.907 235.93 139.158 235.498C139.859 234.133 140.595 232.768 141.349 231.421C142.103 230.074 142.731 228.656 143.234 227.183L143.252 227.237Z" fill="white"/>
<path d="M152.212 238.893C152.284 239.396 152.446 239.737 152.733 239.899C153.02 240.06 153.361 240.132 153.738 240.078C154.115 240.024 154.511 239.917 154.923 239.755C155.319 239.575 155.66 239.396 155.911 239.234C156.522 238.857 157.15 238.372 157.778 237.761C158.407 237.151 158.999 236.54 159.556 235.912C160.113 235.283 160.598 234.69 161.046 234.133C161.495 233.577 161.837 233.164 162.106 232.876C162.267 232.697 162.357 232.661 162.429 232.768C162.483 232.858 162.483 233.002 162.429 233.182C162.321 233.505 162.106 233.918 161.765 234.385C161.424 234.852 161.029 235.355 160.58 235.894C160.113 236.432 159.61 236.971 159.071 237.51C158.533 238.067 157.994 238.57 157.473 239.037C156.953 239.504 156.45 239.917 156.001 240.258C155.552 240.617 155.175 240.869 154.888 241.012C154.475 241.264 153.99 241.443 153.451 241.587C152.912 241.731 152.374 241.785 151.871 241.767C151.35 241.749 150.865 241.605 150.417 241.372C149.968 241.12 149.609 240.743 149.339 240.204C149.124 239.737 148.998 239.234 148.998 238.713C148.998 238.175 149.052 237.654 149.16 237.115C149.267 236.576 149.447 236.073 149.662 235.57C149.878 235.067 150.093 234.6 150.345 234.169C150.991 232.93 151.763 231.834 152.697 230.865C153.631 229.895 154.69 229.051 155.875 228.35C156.45 227.973 157.06 227.668 157.689 227.416C158.317 227.183 158.964 227.003 159.628 226.895C160.041 226.806 160.508 226.788 160.993 226.823C161.477 226.877 161.837 227.093 162.088 227.524C162.285 227.829 162.375 228.153 162.357 228.494C162.339 228.835 162.267 229.176 162.124 229.5C161.998 229.823 161.819 230.146 161.603 230.434C161.388 230.721 161.172 230.972 160.957 231.188C160.436 231.763 159.825 232.266 159.161 232.679C158.479 233.092 157.814 233.469 157.132 233.774C156.755 233.936 156.378 234.062 156.019 234.187C155.66 234.313 155.265 234.421 154.87 234.529C154.654 234.564 154.385 234.6 154.08 234.636C153.774 234.654 153.541 234.762 153.379 234.942C153.2 235.121 153.074 235.391 152.966 235.732C152.859 236.073 152.769 236.379 152.661 236.63C152.499 236.989 152.392 237.348 152.32 237.743C152.248 238.139 152.23 238.516 152.266 238.893H152.212ZM153.846 233.936C154.618 233.9 155.319 233.648 155.947 233.199C156.575 232.75 157.168 232.284 157.743 231.781C158.03 231.547 158.299 231.278 158.551 231.008C158.802 230.739 159.035 230.434 159.233 230.128C159.359 229.895 159.52 229.589 159.7 229.212C159.879 228.853 159.951 228.53 159.933 228.242C159.915 228.009 159.825 227.865 159.7 227.811C159.574 227.775 159.395 227.775 159.197 227.865C158.999 227.937 158.784 228.063 158.551 228.224C158.317 228.386 158.102 228.566 157.904 228.745C157.707 228.925 157.527 229.087 157.383 229.266C157.222 229.428 157.132 229.536 157.078 229.571C156.432 230.236 155.857 230.936 155.336 231.673C154.816 232.409 154.313 233.164 153.828 233.936H153.846Z" fill="white"/>
<path d="M180.565 241.048C179.667 241.443 178.697 241.713 177.656 241.857C176.614 242 175.645 241.857 174.711 241.479C173.939 241.156 173.31 240.617 172.844 239.899C172.377 239.162 172.054 238.426 171.892 237.654C171.694 236.576 171.712 235.498 171.928 234.439C172.143 233.379 172.431 232.355 172.79 231.368C173.149 230.38 173.544 229.428 173.975 228.512C174.424 227.614 174.962 226.752 175.591 225.926C174.855 225.602 174.19 225.171 173.562 224.632C172.933 224.094 172.413 223.519 172.018 222.854C171.623 222.208 171.353 221.489 171.246 220.717C171.12 219.945 171.192 219.136 171.461 218.292C171.73 217.448 172.179 216.766 172.808 216.245C173.436 215.724 174.154 215.311 174.944 215.059C175.735 214.79 176.578 214.646 177.44 214.628C178.32 214.61 179.128 214.682 179.918 214.862C180.295 214.952 180.708 215.077 181.175 215.221C181.642 215.383 182.055 215.58 182.396 215.814C182.504 215.904 182.612 216.011 182.719 216.155C182.827 216.299 182.791 216.442 182.612 216.604C182.486 216.712 182.306 216.73 182.109 216.658C181.911 216.586 181.75 216.514 181.606 216.478C180.906 216.191 180.134 216.047 179.344 216.029C178.536 216.029 177.746 216.119 176.973 216.335C176.273 216.532 175.609 216.855 175.016 217.304C174.424 217.753 174.029 218.364 173.831 219.118C173.598 219.873 173.562 220.663 173.759 221.489C173.957 222.315 174.316 223.016 174.819 223.591C174.891 223.698 174.98 223.824 175.124 223.968C175.25 224.111 175.411 224.255 175.573 224.381C175.735 224.507 175.896 224.614 176.076 224.686C176.237 224.758 176.399 224.758 176.561 224.686C176.722 224.614 176.866 224.489 176.991 224.309C177.117 224.129 177.243 223.968 177.351 223.86C177.53 223.645 177.71 223.447 177.871 223.267C178.051 223.088 178.248 222.908 178.464 222.711C179.074 222.1 179.739 221.525 180.421 220.986C181.103 220.466 181.804 219.945 182.504 219.424C184.012 218.364 185.556 217.376 187.172 216.478C188.788 215.58 190.458 214.898 192.2 214.467C192.811 214.287 193.565 214.143 194.445 214C195.324 213.874 196.186 213.838 197.012 213.91C197.838 213.982 198.574 214.215 199.221 214.61C199.867 214.988 200.244 215.634 200.388 216.514C200.55 217.34 200.496 218.095 200.244 218.831C199.993 219.567 199.616 220.232 199.131 220.861C198.646 221.489 198.09 222.064 197.461 222.567C196.833 223.07 196.204 223.519 195.594 223.896C193.96 224.974 192.236 225.818 190.44 226.41C188.645 227.003 186.777 227.344 184.82 227.434C183.922 227.506 183.007 227.506 182.109 227.434C181.211 227.362 180.313 227.255 179.451 227.075C179.254 227.039 179.02 227.165 178.769 227.488C178.518 227.811 178.266 228.189 178.015 228.62C177.764 229.051 177.548 229.482 177.369 229.913C177.171 230.344 177.045 230.649 176.956 230.829C176.776 231.206 176.614 231.673 176.435 232.212C176.273 232.768 176.13 233.343 176.04 233.954C175.932 234.565 175.896 235.175 175.896 235.786C175.896 236.397 175.968 236.989 176.13 237.528C176.291 238.067 176.525 238.534 176.884 238.911C177.225 239.306 177.692 239.576 178.284 239.719C179.164 239.935 180.026 239.899 180.87 239.611C181.714 239.306 182.504 238.875 183.258 238.282C184.012 237.69 184.695 237.043 185.305 236.325C185.916 235.606 186.472 234.942 186.921 234.313C187.496 233.577 188.034 232.84 188.537 232.068C189.04 231.314 189.543 230.523 190.027 229.733C190.207 229.374 190.405 229.194 190.638 229.194C190.871 229.194 191.159 229.194 191.518 229.194H192.936C193.242 229.194 193.583 229.194 193.924 229.158C193.08 230.595 192.272 232.05 191.482 233.541C190.692 235.031 189.902 236.522 189.094 237.995C188.286 239.468 187.442 240.941 186.562 242.359C185.682 243.796 184.713 245.161 183.671 246.472C182.504 247.927 181.175 249.095 179.721 249.975C178.248 250.855 176.632 251.537 174.837 252.04C174.19 252.22 173.436 252.345 172.574 252.453C171.694 252.561 170.851 252.543 170.007 252.417C169.163 252.292 168.409 252.022 167.744 251.609C167.062 251.196 166.613 250.567 166.38 249.723C166.272 249.4 166.236 249.041 166.272 248.664C166.308 248.286 166.415 247.927 166.559 247.586C166.703 247.245 166.9 246.939 167.17 246.67C167.439 246.401 167.744 246.203 168.103 246.077C168.498 245.951 168.857 245.934 169.163 246.041C169.468 246.149 169.719 246.329 169.917 246.58C170.114 246.814 170.258 247.119 170.33 247.478C170.402 247.837 170.402 248.179 170.33 248.538C170.294 248.699 170.222 248.825 170.114 248.933C170.025 249.041 169.917 249.148 169.809 249.256C169.719 249.364 169.63 249.472 169.54 249.598C169.468 249.723 169.414 249.849 169.396 250.011C169.36 250.316 169.45 250.567 169.683 250.765C169.917 250.962 170.168 251.124 170.456 251.232C171.228 251.537 172.018 251.609 172.808 251.412C173.598 251.214 174.352 250.945 175.052 250.603C175.896 250.208 176.65 249.723 177.333 249.148C178.015 248.574 178.643 247.945 179.218 247.263C179.793 246.58 180.331 245.862 180.816 245.107C181.319 244.353 181.786 243.599 182.253 242.862C182.737 242.036 183.222 241.228 183.689 240.402C184.156 239.576 184.641 238.749 185.125 237.905C184.425 238.498 183.689 239.073 182.899 239.611C182.127 240.15 181.319 240.617 180.475 241.012L180.565 241.048ZM179.631 226.177C181.032 226.482 182.468 226.608 183.994 226.536C185.503 226.464 186.993 226.231 188.429 225.818C189.866 225.405 191.248 224.812 192.541 224.04C193.834 223.267 194.947 222.333 195.899 221.22C196.097 221.004 196.312 220.753 196.528 220.466C196.743 220.178 196.94 219.873 197.12 219.567C197.3 219.262 197.425 218.939 197.533 218.598C197.623 218.256 197.659 217.915 197.623 217.592C197.533 216.891 197.228 216.353 196.671 215.993C196.132 215.634 195.54 215.437 194.894 215.365C193.439 215.185 192.039 215.383 190.692 215.957C189.345 216.532 188.088 217.251 186.921 218.113C185.467 219.19 184.156 220.43 182.971 221.831C181.804 223.231 180.69 224.668 179.631 226.177Z" fill="white"/>
<path d="M197.156 228.602C197.856 228.153 198.61 227.775 199.4 227.434C200.19 227.093 200.999 226.895 201.86 226.859C202.632 226.824 203.351 226.949 204.033 227.255C204.715 227.56 205.2 228.045 205.505 228.709C205.667 229.123 205.739 229.607 205.739 230.164C205.739 230.721 205.685 231.224 205.559 231.709C205.434 232.176 205.308 232.625 205.182 233.056C204.913 233.702 204.59 234.367 204.177 235.067C203.764 235.768 203.315 236.432 202.83 237.079C202.381 237.618 201.896 238.121 201.376 238.642C200.855 239.144 200.28 239.611 199.67 240.043C199.059 240.474 198.413 240.833 197.731 241.138C197.048 241.443 196.33 241.623 195.576 241.713C194.84 241.803 194.121 241.713 193.367 241.479C192.631 241.246 192.038 240.851 191.59 240.312C191.087 239.558 190.835 238.785 190.835 237.995C190.835 237.708 190.871 237.402 190.925 237.043C190.979 236.702 191.051 236.379 191.141 236.073C191.626 234.618 192.398 233.235 193.475 231.942C194.552 230.649 195.773 229.536 197.138 228.62H197.174L197.156 228.602ZM194.121 238.139C194.068 238.336 194.032 238.516 194.014 238.695C193.996 238.875 193.96 238.983 193.96 239.019C193.96 239.306 194.014 239.558 194.139 239.773C194.265 239.989 194.516 240.168 194.893 240.348C195.271 240.456 195.666 240.42 196.079 240.222C196.492 240.025 196.869 239.827 197.21 239.629C197.192 239.629 197.21 239.611 197.282 239.558C197.353 239.504 197.407 239.486 197.443 239.486C198.179 238.875 198.844 238.175 199.472 237.384C200.083 236.594 200.639 235.786 201.142 234.96C201.645 234.134 202.058 233.307 202.417 232.481C202.776 231.655 203.045 230.883 203.243 230.146C203.279 230.038 203.315 229.913 203.333 229.751C203.351 229.589 203.369 229.428 203.369 229.248C203.369 228.943 203.315 228.656 203.225 228.386C203.135 228.117 202.938 227.955 202.65 227.883C202.291 227.847 201.932 227.919 201.537 228.117C201.142 228.314 200.819 228.512 200.568 228.709C199.795 229.284 199.041 229.949 198.323 230.721C197.605 231.493 196.958 232.302 196.384 233.146C195.809 233.99 195.324 234.816 194.929 235.66C194.534 236.504 194.265 237.277 194.139 237.977V238.103L194.121 238.139Z" fill="white"/>
<path d="M211.341 237.348C210.748 238.013 210.138 238.695 209.51 239.396C208.881 240.096 208.181 240.671 207.409 241.12C207.103 241.3 206.78 241.443 206.439 241.533C206.116 241.623 205.775 241.677 205.469 241.641C205.146 241.623 204.859 241.533 204.572 241.354C204.302 241.192 204.069 240.923 203.889 240.545C203.728 240.186 203.656 239.809 203.674 239.414C203.674 239.019 203.746 238.624 203.835 238.229C203.925 237.833 204.069 237.438 204.248 237.061C204.428 236.684 204.608 236.325 204.769 236.001C205.272 235.157 205.793 234.313 206.313 233.433C206.834 232.553 207.355 231.691 207.858 230.829C208.055 230.505 208.235 230.164 208.396 229.823C208.558 229.482 208.719 229.105 208.881 228.709C208.899 228.62 208.917 228.512 208.953 228.368C208.971 228.225 208.989 228.081 209.025 227.937C209.043 227.793 209.079 227.65 209.114 227.524C209.15 227.398 209.222 227.291 209.312 227.219C209.384 227.219 209.527 227.219 209.779 227.219C210.012 227.219 210.3 227.201 210.623 227.183C210.946 227.183 211.269 227.183 211.574 227.183H212.347C212.347 227.183 212.472 227.309 212.472 227.416V227.686C212.49 228.081 212.418 228.494 212.257 228.925C212.095 229.356 211.916 229.733 211.718 230.074C211.251 231.008 210.766 231.888 210.228 232.751C209.743 233.631 209.24 234.493 208.702 235.337C208.163 236.181 207.66 237.025 207.139 237.887C207.014 238.121 206.87 238.444 206.726 238.839C206.583 239.234 206.637 239.54 206.87 239.791C207.032 239.953 207.211 240.007 207.409 239.971C207.624 239.935 207.822 239.863 208.037 239.755C208.253 239.647 208.432 239.522 208.594 239.36C208.755 239.198 208.899 239.073 209.007 238.965C209.707 238.318 210.353 237.6 210.928 236.774C211.503 235.965 212.059 235.157 212.58 234.385C213.155 233.541 213.693 232.679 214.178 231.799C214.681 230.919 215.112 230.003 215.489 229.087C215.597 228.781 215.74 228.44 215.902 228.099C216.063 227.74 216.207 227.488 216.315 227.309C216.674 227.291 217.123 227.255 217.662 227.201C218.2 227.165 218.667 227.129 219.044 227.129H219.708C219.691 227.291 219.655 227.434 219.601 227.596C219.565 227.722 219.511 227.883 219.493 228.045C219.457 228.207 219.403 228.35 219.349 228.458C218.954 229.338 218.487 230.2 217.967 231.026C217.446 231.853 216.925 232.679 216.405 233.505C215.884 234.331 215.417 235.175 214.986 236.037C214.555 236.899 214.196 237.797 213.963 238.749C213.891 239.306 213.998 239.611 214.268 239.701C214.537 239.773 214.86 239.665 215.237 239.36C216.225 238.516 217.123 237.564 217.913 236.504C218.703 235.445 219.457 234.367 220.157 233.253C220.283 233.146 220.427 233.11 220.588 233.146C220.75 233.182 220.804 233.325 220.75 233.559C219.996 234.78 219.188 235.948 218.308 237.079C217.428 238.211 216.476 239.288 215.417 240.312C214.932 240.707 214.411 241.03 213.873 241.282C213.334 241.533 212.777 241.605 212.203 241.461C211.736 241.354 211.413 241.138 211.233 240.815C211.054 240.492 210.946 240.132 210.928 239.719C210.928 239.306 210.964 238.893 211.036 238.462C211.126 238.031 211.197 237.654 211.269 237.348H211.341Z" fill="white"/>
<path d="M230.41 233.074C230.482 233.235 230.41 233.487 230.177 233.828C229.728 234.439 229.333 234.996 228.992 235.463C228.633 235.93 228.292 236.379 227.968 236.81C227.645 237.223 227.304 237.654 226.963 238.067C226.622 238.48 226.209 238.965 225.76 239.486C225.49 239.755 225.185 240.043 224.808 240.348C224.449 240.653 224.054 240.923 223.641 241.156C223.228 241.39 222.815 241.533 222.384 241.623C221.953 241.695 221.54 241.659 221.145 241.479C220.624 241.21 220.265 240.851 220.122 240.402C219.96 239.953 219.924 239.45 219.996 238.929C220.068 238.408 220.211 237.869 220.427 237.348C220.642 236.828 220.858 236.379 221.055 236.001C221.343 235.445 221.684 234.942 222.079 234.457C222.474 233.99 222.887 233.523 223.318 233.056C223.749 232.607 224.18 232.158 224.593 231.691C225.006 231.224 225.419 230.757 225.778 230.254C225.49 230.218 225.203 230.218 224.916 230.254C224.629 230.308 224.359 230.29 224.09 230.164C223.838 230.092 223.641 230.038 223.497 229.967C223.336 229.895 223.156 229.967 222.941 230.128C222.294 231.116 221.666 232.158 221.037 233.235C220.409 234.313 219.727 235.373 219.008 236.397C218.29 237.42 217.518 238.39 216.674 239.27C215.83 240.168 214.878 240.923 213.819 241.533C213.532 241.569 213.352 241.497 213.298 241.318C213.227 241.138 213.262 240.941 213.388 240.743C214.627 239.953 215.74 239.019 216.71 237.941C217.698 236.863 218.595 235.714 219.403 234.493C220.211 233.271 220.983 231.996 221.666 230.685C222.366 229.374 223.048 228.081 223.731 226.824C223.838 226.788 223.964 226.77 224.072 226.824C224.198 226.859 224.305 226.913 224.431 226.985C224.557 227.057 224.664 227.147 224.772 227.237C224.88 227.326 224.988 227.398 225.077 227.434C225.365 227.56 225.652 227.65 225.939 227.686C226.227 227.722 226.514 227.722 226.801 227.686C227.178 227.614 227.555 227.524 227.914 227.38C228.274 227.237 228.633 227.147 228.992 227.093C229.261 227.075 229.423 227.093 229.513 227.201C229.584 227.308 229.602 227.416 229.584 227.56C229.566 227.704 229.495 227.865 229.387 228.027C229.279 228.189 229.189 228.35 229.1 228.476C228.327 229.446 227.609 230.434 226.927 231.457C226.245 232.481 225.616 233.523 224.988 234.6C224.808 234.87 224.629 235.139 224.467 235.427C224.287 235.714 224.126 236.001 223.964 236.307C223.803 236.612 223.695 236.899 223.605 237.223C223.515 237.528 223.479 237.851 223.515 238.175C223.515 238.39 223.551 238.642 223.641 238.929C223.731 239.216 223.91 239.342 224.162 239.288C224.539 239.216 224.952 238.983 225.401 238.57C225.85 238.157 226.316 237.672 226.801 237.097C227.286 236.522 227.753 235.912 228.202 235.247C228.651 234.583 229.064 233.99 229.441 233.451C229.548 233.271 229.674 233.11 229.818 232.93C229.961 232.768 230.141 232.786 230.356 232.984L230.41 233.074Z" fill="white"/>
<path d="M231.542 229.392C231.631 229.23 231.703 229.033 231.757 228.799C231.811 228.548 231.865 228.314 231.937 228.081C232.008 227.847 232.098 227.65 232.206 227.47C232.314 227.291 232.475 227.183 232.673 227.147H235.582C235.707 227.56 235.743 227.973 235.653 228.332C235.564 228.691 235.438 229.069 235.258 229.392C235.869 228.907 236.497 228.404 237.09 227.883C237.7 227.362 238.401 227.021 239.191 226.841C239.478 226.77 239.765 226.752 240.071 226.788C240.376 226.824 240.645 226.895 240.879 227.039C241.13 227.165 241.328 227.344 241.489 227.578C241.651 227.811 241.741 228.099 241.776 228.422C241.776 228.548 241.776 228.745 241.723 228.997C241.687 229.248 241.723 229.428 241.83 229.518C241.902 229.554 242.01 229.518 242.171 229.374C242.333 229.23 242.513 229.069 242.692 228.889C242.872 228.709 243.033 228.53 243.195 228.368C243.357 228.206 243.446 228.081 243.5 228.045C243.788 227.829 244.111 227.614 244.47 227.398C244.829 227.183 245.188 227.021 245.583 226.877C245.96 226.752 246.355 226.662 246.75 226.644C247.145 226.626 247.54 226.68 247.917 226.841C248.223 226.967 248.474 227.165 248.654 227.38C248.833 227.614 248.959 227.865 249.031 228.135C249.102 228.404 249.138 228.709 249.12 229.015C249.102 229.32 249.049 229.625 248.995 229.913C248.294 231.493 247.468 233.002 246.535 234.421C245.601 235.84 244.757 237.295 243.985 238.821C243.895 239.126 243.877 239.378 243.949 239.576C244.021 239.773 244.236 239.845 244.613 239.809C244.991 239.773 245.35 239.593 245.709 239.288C246.068 238.983 246.373 238.713 246.642 238.48C247.253 237.905 247.846 237.277 248.384 236.612C248.923 235.93 249.444 235.247 249.928 234.511C250.036 234.313 250.18 234.098 250.359 233.846C250.539 233.613 250.736 233.397 250.988 233.217C251.149 233.2 251.257 233.217 251.311 233.289C251.383 233.361 251.401 233.451 251.401 233.577C251.401 233.702 251.365 233.81 251.293 233.936C251.239 234.062 251.185 234.169 251.149 234.259C250.701 234.942 250.234 235.588 249.713 236.217C249.192 236.828 248.672 237.438 248.169 238.031C247.648 238.677 247.073 239.288 246.481 239.863C245.888 240.456 245.206 240.923 244.434 241.264C244.129 241.39 243.805 241.515 243.464 241.587C243.123 241.659 242.782 241.713 242.459 241.695C242.136 241.695 241.812 241.605 241.525 241.443C241.238 241.282 241.004 241.048 240.825 240.707C240.645 240.402 240.555 240.06 240.573 239.719C240.573 239.36 240.645 239.001 240.735 238.642C240.843 238.282 240.968 237.923 241.13 237.582C241.292 237.241 241.435 236.917 241.579 236.63C242.046 235.786 242.531 234.96 243.033 234.151C243.536 233.325 244.039 232.499 244.524 231.673C244.596 231.547 244.721 231.314 244.937 230.972C245.152 230.649 245.314 230.29 245.457 229.913C245.601 229.536 245.673 229.194 245.691 228.907C245.691 228.602 245.547 228.422 245.242 228.368C245.044 228.35 244.829 228.368 244.613 228.476C244.398 228.566 244.165 228.691 243.949 228.835C243.734 228.997 243.518 229.158 243.339 229.338C243.159 229.518 242.997 229.661 242.854 229.805C242.189 230.47 241.597 231.206 241.04 232.032C240.502 232.858 239.981 233.666 239.496 234.493L235.097 241.551H231.99C232.673 240.366 233.355 239.162 234.002 237.977C234.666 236.792 235.33 235.588 236.013 234.367C236.318 233.792 236.641 233.217 236.982 232.625C237.305 232.032 237.647 231.457 237.97 230.883C238.042 230.757 238.131 230.595 238.239 230.434C238.347 230.272 238.455 230.092 238.544 229.913C238.634 229.733 238.706 229.554 238.742 229.392C238.778 229.212 238.778 229.051 238.706 228.889C238.598 228.656 238.437 228.512 238.203 228.512C237.988 228.512 237.736 228.566 237.449 228.709C237.18 228.853 236.892 229.051 236.587 229.284C236.282 229.518 236.013 229.769 235.743 230.021C235.474 230.272 235.258 230.487 235.079 230.703C234.899 230.919 234.774 231.044 234.72 231.116C233.876 232.14 233.122 233.2 232.421 234.295C231.721 235.409 231.039 236.522 230.392 237.672C229.997 238.318 229.602 238.965 229.225 239.611C228.848 240.258 228.471 240.905 228.094 241.551H224.646C225.885 239.54 227.053 237.528 228.166 235.516C229.261 233.505 230.392 231.457 231.542 229.392Z" fill="white"/>
<path d="M250.916 238.893C250.988 239.396 251.149 239.737 251.437 239.899C251.724 240.06 252.065 240.132 252.442 240.078C252.819 240.024 253.214 239.917 253.627 239.755C254.022 239.575 254.364 239.396 254.615 239.234C255.225 238.857 255.854 238.372 256.482 237.761C257.111 237.151 257.703 236.54 258.26 235.912C258.817 235.283 259.301 234.69 259.75 234.133C260.199 233.577 260.54 233.164 260.81 232.876C260.971 232.697 261.061 232.661 261.133 232.768C261.187 232.858 261.187 233.002 261.133 233.182C261.025 233.505 260.81 233.918 260.469 234.385C260.127 234.852 259.732 235.355 259.283 235.894C258.817 236.432 258.314 236.971 257.775 237.51C257.237 238.067 256.698 238.57 256.177 239.037C255.656 239.504 255.154 239.917 254.705 240.258C254.256 240.617 253.879 240.869 253.591 241.012C253.178 241.264 252.694 241.443 252.155 241.587C251.616 241.731 251.078 241.785 250.575 241.767C250.054 241.749 249.569 241.605 249.12 241.372C248.672 241.12 248.312 240.743 248.043 240.204C247.828 239.737 247.702 239.234 247.702 238.713C247.702 238.175 247.756 237.654 247.864 237.115C247.971 236.576 248.151 236.073 248.366 235.57C248.582 235.067 248.797 234.6 249.049 234.169C249.695 232.93 250.467 231.834 251.401 230.865C252.335 229.895 253.394 229.051 254.579 228.35C255.154 227.973 255.764 227.668 256.393 227.416C257.021 227.183 257.667 227.003 258.332 226.895C258.745 226.806 259.212 226.788 259.696 226.823C260.181 226.877 260.54 227.093 260.792 227.524C260.989 227.829 261.079 228.153 261.061 228.494C261.043 228.835 260.971 229.176 260.828 229.5C260.702 229.823 260.522 230.146 260.307 230.434C260.092 230.721 259.876 230.972 259.661 231.188C259.14 231.763 258.529 232.266 257.865 232.679C257.183 233.092 256.518 233.469 255.836 233.774C255.459 233.936 255.082 234.062 254.723 234.187C254.364 234.313 253.969 234.421 253.574 234.529C253.358 234.564 253.089 234.6 252.783 234.636C252.478 234.654 252.245 234.762 252.083 234.942C251.904 235.121 251.778 235.391 251.67 235.732C251.562 236.073 251.473 236.379 251.365 236.63C251.203 236.989 251.096 237.348 251.024 237.743C250.952 238.139 250.934 238.516 250.97 238.893H250.916ZM252.532 233.936C253.304 233.9 254.004 233.648 254.633 233.199C255.261 232.75 255.854 232.284 256.428 231.781C256.716 231.547 256.985 231.278 257.236 231.008C257.488 230.739 257.721 230.434 257.919 230.128C258.045 229.895 258.206 229.589 258.386 229.212C258.565 228.853 258.637 228.53 258.619 228.242C258.601 228.009 258.511 227.865 258.386 227.811C258.26 227.775 258.08 227.775 257.883 227.865C257.685 227.937 257.47 228.063 257.236 228.224C257.003 228.386 256.788 228.566 256.59 228.745C256.393 228.925 256.213 229.087 256.069 229.266C255.908 229.428 255.818 229.536 255.764 229.571C255.118 230.236 254.543 230.936 254.022 231.673C253.502 232.409 252.999 233.164 252.514 233.936H252.532Z" fill="white"/>
<path d="M263.521 223.627H266.34L267.758 221.579L268.118 220.915V220.95C268.405 220.43 268.71 219.855 269.015 219.28C269.321 218.687 269.536 218.149 269.68 217.646C269.68 217.61 269.68 217.556 269.716 217.538C269.734 217.502 269.752 217.466 269.752 217.412C269.788 217.286 269.841 217.143 269.913 216.981C269.985 216.82 270.057 216.712 270.147 216.622C270.308 216.532 270.56 216.46 270.937 216.424C271.314 216.388 271.709 216.353 272.122 216.353C272.589 216.353 273.002 216.371 273.379 216.424C273.756 216.478 273.917 216.532 273.881 216.622C273.81 216.891 273.702 217.215 273.558 217.61C273.397 218.005 273.181 218.49 272.876 219.029C272.571 219.567 272.194 220.232 271.709 221.004C271.242 221.759 270.649 222.639 269.967 223.645H272.158V224.812H269.339C268.638 225.872 267.884 227.021 267.094 228.242C266.304 229.464 265.568 230.703 264.85 231.96C264.131 233.217 263.485 234.421 262.892 235.588C262.3 236.756 261.869 237.833 261.582 238.803C261.42 239.378 261.528 239.773 261.905 239.971C262.282 240.168 262.713 240.204 263.216 240.025C263.521 239.917 263.898 239.665 264.311 239.288C264.724 238.911 265.191 238.462 265.676 237.923C266.16 237.402 266.645 236.828 267.148 236.217C267.651 235.606 268.118 235.014 268.567 234.439C269.015 233.864 269.41 233.343 269.752 232.858C270.093 232.391 270.344 232.032 270.524 231.781C270.56 231.745 270.596 231.691 270.631 231.655C270.649 231.619 270.667 231.583 270.703 231.547C270.793 231.547 270.865 231.601 270.901 231.709C270.811 231.996 270.613 232.409 270.29 232.948C269.967 233.487 269.572 234.098 269.087 234.744C268.602 235.391 268.046 236.109 267.435 236.828C266.825 237.564 266.16 238.246 265.442 238.875C264.724 239.504 264.006 240.096 263.252 240.599C262.497 241.102 261.743 241.479 261.007 241.731C260.271 241.839 259.624 241.731 259.032 241.407C258.439 241.084 258.116 240.527 258.026 239.755C258.008 239.198 258.08 238.624 258.242 238.013C258.403 237.402 258.727 236.648 259.194 235.768C259.66 234.87 260.289 233.774 261.061 232.463C261.833 231.152 262.839 229.518 264.024 227.578L265.747 224.794H263.521V223.627Z" fill="white"/>
<path d="M158.12 258.937C158.174 258.811 158.246 258.686 158.317 258.56C158.389 258.434 158.425 258.308 158.443 258.165C158.443 258.075 158.443 258.003 158.425 257.931C158.407 257.859 158.425 257.806 158.497 257.752C158.569 257.68 158.695 257.626 158.838 257.59C158.982 257.554 159.161 257.518 159.323 257.5C159.485 257.5 159.664 257.464 159.826 257.464C159.987 257.464 160.113 257.464 160.221 257.464C160.418 257.482 160.508 257.572 160.526 257.716C160.526 257.859 160.526 258.003 160.472 258.183C160.418 258.344 160.347 258.524 160.257 258.686C160.167 258.847 160.095 258.973 160.059 259.045C159.359 260.302 158.641 261.541 157.922 262.763C157.204 263.984 156.504 265.223 155.822 266.516C155.66 266.804 155.516 267.091 155.373 267.379C155.229 267.666 155.085 267.953 154.942 268.241C154.762 268.51 154.583 268.797 154.421 269.067C154.259 269.336 154.116 269.624 154.026 269.911C154.008 270.019 153.99 270.127 153.99 270.234C153.99 270.342 154.008 270.45 154.044 270.522C154.08 270.593 154.134 270.647 154.206 270.683C154.277 270.719 154.385 270.701 154.529 270.647C154.852 270.414 155.157 270.144 155.462 269.839C155.768 269.534 156.055 269.211 156.324 268.869C156.594 268.528 156.845 268.187 157.096 267.846C157.348 267.504 157.563 267.163 157.761 266.858C157.797 266.804 157.851 266.75 157.922 266.678C157.994 266.606 158.066 266.624 158.156 266.714C158.192 266.75 158.192 266.84 158.138 266.965C157.617 267.828 157.025 268.672 156.36 269.498C155.696 270.324 154.924 270.989 154.044 271.545C153.775 271.671 153.505 271.725 153.2 271.689C152.895 271.671 152.661 271.527 152.5 271.258C152.356 271.025 152.284 270.755 152.284 270.468C152.284 270.18 152.302 269.911 152.374 269.66C152.177 269.911 151.979 270.144 151.728 270.378C151.494 270.611 151.261 270.827 151.027 271.043C150.812 271.24 150.561 271.438 150.291 271.635C150.022 271.833 149.717 271.941 149.411 271.958C149.142 271.994 148.891 271.959 148.711 271.851C148.532 271.743 148.352 271.599 148.244 271.402C148.119 271.222 148.047 271.007 147.993 270.755C147.939 270.522 147.921 270.288 147.957 270.055C147.993 269.498 148.119 268.959 148.334 268.438C148.549 267.917 148.819 267.414 149.16 266.93C149.501 266.445 149.86 266.014 150.273 265.6C150.686 265.187 151.099 264.828 151.548 264.523C152.141 264.074 152.787 263.751 153.469 263.553C153.631 263.535 153.811 263.499 153.99 263.463C154.17 263.427 154.349 263.463 154.511 263.517C154.654 263.589 154.78 263.679 154.852 263.804C154.942 263.93 155.014 264.074 155.103 264.235C156.145 262.493 157.132 260.751 158.102 258.973L158.12 258.937ZM151.225 270.324C152.033 269.516 152.733 268.618 153.362 267.63C153.972 266.642 154.421 265.582 154.69 264.487C154.672 264.164 154.547 263.966 154.313 263.912C154.098 263.858 153.864 263.912 153.631 264.074C153.38 264.253 153.146 264.451 152.949 264.667C152.733 264.882 152.536 265.116 152.356 265.349C152.248 265.475 152.087 265.672 151.871 265.924C151.656 266.175 151.44 266.481 151.207 266.804C150.974 267.127 150.722 267.468 150.489 267.846C150.255 268.205 150.04 268.564 149.878 268.905C149.717 269.246 149.609 269.57 149.555 269.875C149.501 270.18 149.537 270.414 149.663 270.611C149.753 270.755 149.878 270.827 150.022 270.845C150.165 270.863 150.327 270.845 150.471 270.791C150.614 270.737 150.776 270.683 150.92 270.576C151.063 270.486 151.171 270.396 151.243 270.324H151.225Z" fill="white"/>
<path d="M157.635 270.108C157.671 270.396 157.779 270.593 157.94 270.683C158.102 270.773 158.299 270.809 158.515 270.791C158.73 270.773 158.964 270.701 159.179 270.611C159.413 270.504 159.592 270.414 159.754 270.306C160.113 270.09 160.454 269.803 160.813 269.462C161.172 269.121 161.514 268.761 161.819 268.402C162.124 268.043 162.411 267.702 162.663 267.396C162.914 267.091 163.112 266.84 163.273 266.678C163.363 266.57 163.417 266.552 163.453 266.606C163.489 266.66 163.489 266.75 163.453 266.84C163.381 267.037 163.273 267.253 163.076 267.522C162.896 267.791 162.663 268.079 162.393 268.384C162.124 268.69 161.837 268.995 161.532 269.3C161.226 269.606 160.921 269.911 160.616 270.162C160.311 270.414 160.041 270.665 159.772 270.863C159.52 271.06 159.305 271.204 159.143 271.294C158.91 271.437 158.623 271.545 158.317 271.617C158.012 271.707 157.707 271.725 157.42 271.725C157.114 271.725 156.845 271.635 156.594 271.491C156.342 271.348 156.127 271.132 155.983 270.827C155.857 270.557 155.786 270.27 155.786 269.983C155.786 269.677 155.804 269.372 155.875 269.085C155.947 268.779 156.037 268.492 156.163 268.205C156.288 267.917 156.414 267.648 156.54 267.396C156.899 266.696 157.348 266.067 157.886 265.511C158.407 264.954 159.018 264.487 159.7 264.074C160.023 263.858 160.364 263.679 160.724 263.553C161.083 263.409 161.46 263.319 161.837 263.247C162.07 263.194 162.34 263.176 162.609 263.212C162.878 263.23 163.094 263.373 163.237 263.607C163.345 263.786 163.399 263.966 163.381 264.163C163.363 264.361 163.327 264.559 163.255 264.738C163.183 264.936 163.076 265.097 162.968 265.259C162.842 265.421 162.735 265.564 162.591 265.69C162.286 266.013 161.945 266.301 161.567 266.534C161.19 266.768 160.795 266.983 160.4 267.163C160.185 267.253 159.969 267.325 159.772 267.396C159.556 267.468 159.341 267.54 159.125 267.594C159 267.612 158.856 267.63 158.677 267.648C158.497 267.648 158.371 267.72 158.282 267.809C158.174 267.917 158.102 268.061 158.048 268.258C157.994 268.456 157.94 268.636 157.869 268.761C157.779 268.959 157.707 269.174 157.671 269.39C157.635 269.606 157.617 269.821 157.635 270.037V270.108ZM158.551 267.271C159 267.253 159.395 267.109 159.754 266.858C160.113 266.606 160.454 266.337 160.777 266.049C160.939 265.906 161.101 265.762 161.244 265.6C161.388 265.439 161.514 265.277 161.621 265.097C161.693 264.954 161.783 264.792 161.891 264.577C161.998 264.361 162.034 264.181 162.016 264.02C162.016 263.876 161.962 263.804 161.891 263.768C161.819 263.75 161.729 263.768 161.603 263.804C161.496 263.84 161.37 263.912 161.226 264.02C161.083 264.128 160.975 264.217 160.849 264.307C160.724 264.397 160.634 264.505 160.544 264.595C160.454 264.684 160.4 264.756 160.382 264.774C160.023 265.151 159.682 265.546 159.395 265.977C159.09 266.409 158.82 266.84 158.533 267.271H158.551Z" fill="white"/>
<path d="M167.637 263.373C167.637 263.481 167.583 263.571 167.547 263.661C167.493 263.75 167.439 263.858 167.385 263.948L167.188 264.235C167.08 264.523 167.008 264.846 166.936 265.187C166.864 265.529 166.793 265.87 166.739 266.175C166.631 266.678 166.505 267.217 166.38 267.72C166.254 268.241 166.074 268.726 165.877 269.192C165.661 269.659 165.392 270.09 165.051 270.468C164.71 270.845 164.279 271.168 163.758 271.402C163.543 271.509 163.309 271.581 163.076 271.635C162.842 271.689 162.591 271.725 162.34 271.725C162.016 271.725 161.711 271.671 161.442 271.563C161.244 271.473 161.101 271.348 160.975 271.186C160.849 271.024 160.795 270.845 160.795 270.683C160.795 270.575 160.813 270.45 160.867 270.342C160.921 270.234 160.993 270.126 161.119 270.019C161.19 269.947 161.316 269.893 161.46 269.839C161.603 269.785 161.747 269.767 161.873 269.839C161.945 269.893 161.98 269.965 161.98 270.055C161.98 270.144 161.98 270.252 161.945 270.342C161.945 270.378 161.945 270.432 161.945 270.504C161.945 270.647 161.98 270.791 162.07 270.935C162.142 271.078 162.268 271.15 162.393 271.114C162.501 271.114 162.609 271.078 162.717 271.006C162.824 270.935 162.932 270.845 163.04 270.737C163.148 270.629 163.237 270.54 163.327 270.432C163.417 270.324 163.489 270.252 163.543 270.18C163.992 269.39 164.333 268.546 164.584 267.648C164.835 266.75 165.051 265.87 165.23 265.008C165.015 265.241 164.817 265.475 164.62 265.708C164.422 265.942 164.243 266.175 164.027 266.445C163.345 267.289 162.663 268.115 161.945 268.941C161.226 269.767 160.472 270.522 159.646 271.24C159.538 271.312 159.449 271.384 159.341 271.455C159.233 271.527 159.125 271.581 158.982 271.599C158.838 271.635 158.748 271.599 158.677 271.527C158.605 271.455 158.587 271.33 158.623 271.15C158.659 271.024 158.73 270.935 158.838 270.863C158.946 270.791 159.054 270.737 159.161 270.683L159.377 270.557C159.862 270.252 160.311 269.911 160.759 269.498C161.208 269.103 161.639 268.672 162.034 268.223C162.429 267.774 162.824 267.307 163.201 266.84C163.579 266.373 163.938 265.906 164.279 265.457C164.494 265.169 164.71 264.882 164.907 264.613C165.123 264.343 165.32 264.074 165.536 263.822C165.643 263.679 165.751 263.571 165.877 263.499C166.003 263.427 166.128 263.373 166.272 263.337C166.416 263.301 166.559 263.283 166.721 263.283C166.882 263.283 167.044 263.283 167.206 263.283C167.206 263.283 167.331 263.283 167.403 263.283C167.475 263.283 167.547 263.283 167.601 263.283L167.637 263.319V263.373Z" fill="white"/>
<path d="M176.273 258.937C176.345 258.811 176.399 258.686 176.471 258.56C176.543 258.434 176.579 258.308 176.597 258.165C176.597 258.075 176.597 258.003 176.579 257.931C176.561 257.859 176.579 257.806 176.65 257.752C176.722 257.68 176.848 257.626 176.992 257.59C177.153 257.554 177.315 257.518 177.476 257.5C177.638 257.5 177.818 257.464 177.979 257.464C178.141 257.464 178.284 257.464 178.374 257.464C178.572 257.482 178.662 257.572 178.679 257.716C178.697 257.859 178.68 258.003 178.626 258.183C178.572 258.362 178.5 258.524 178.41 258.686C178.32 258.847 178.249 258.973 178.213 259.045C177.512 260.302 176.794 261.541 176.076 262.763C175.358 263.984 174.657 265.223 173.975 266.516C173.813 266.804 173.652 267.091 173.526 267.379C173.382 267.666 173.239 267.953 173.095 268.241C172.916 268.51 172.754 268.797 172.574 269.067C172.413 269.336 172.269 269.624 172.179 269.911C172.161 270.019 172.144 270.127 172.144 270.234C172.144 270.342 172.161 270.45 172.197 270.522C172.233 270.593 172.287 270.647 172.359 270.683C172.431 270.719 172.539 270.701 172.682 270.647C172.987 270.414 173.311 270.144 173.616 269.839C173.921 269.534 174.208 269.211 174.478 268.869C174.747 268.528 174.999 268.187 175.25 267.846C175.501 267.504 175.717 267.163 175.914 266.858C175.95 266.804 176.004 266.75 176.076 266.678C176.148 266.606 176.22 266.624 176.309 266.714C176.345 266.75 176.345 266.84 176.291 266.965C175.771 267.828 175.178 268.672 174.514 269.498C173.849 270.324 173.077 270.989 172.197 271.545C171.928 271.671 171.659 271.725 171.353 271.689C171.048 271.671 170.815 271.527 170.653 271.258C170.51 271.025 170.438 270.755 170.438 270.468C170.438 270.18 170.456 269.911 170.528 269.66C170.33 269.911 170.132 270.144 169.881 270.378C169.63 270.611 169.414 270.827 169.181 271.043C168.965 271.24 168.714 271.438 168.445 271.635C168.175 271.833 167.87 271.941 167.565 271.958C167.295 271.994 167.044 271.959 166.864 271.851C166.667 271.743 166.505 271.599 166.398 271.402C166.272 271.222 166.2 271.007 166.146 270.755C166.092 270.522 166.092 270.288 166.11 270.055C166.146 269.498 166.272 268.959 166.487 268.438C166.703 267.917 166.972 267.414 167.313 266.93C167.655 266.445 168.014 266.014 168.427 265.6C168.84 265.187 169.253 264.828 169.702 264.523C170.294 264.074 170.94 263.751 171.623 263.553C171.784 263.535 171.964 263.499 172.144 263.463C172.323 263.427 172.503 263.463 172.664 263.517C172.808 263.589 172.934 263.679 173.023 263.804C173.095 263.93 173.185 264.074 173.275 264.235C174.298 262.493 175.304 260.751 176.273 258.973V258.937ZM169.378 270.324C170.186 269.516 170.887 268.618 171.515 267.63C172.126 266.642 172.574 265.582 172.844 264.487C172.826 264.164 172.7 263.966 172.467 263.912C172.251 263.858 172.018 263.912 171.784 264.074C171.533 264.253 171.3 264.451 171.102 264.667C170.887 264.882 170.689 265.116 170.51 265.349C170.402 265.475 170.24 265.672 170.025 265.924C169.809 266.175 169.594 266.481 169.36 266.804C169.127 267.127 168.876 267.468 168.642 267.846C168.409 268.205 168.193 268.564 168.032 268.905C167.87 269.246 167.762 269.57 167.708 269.875C167.655 270.18 167.69 270.414 167.816 270.611C167.906 270.755 168.032 270.827 168.175 270.845C168.319 270.845 168.481 270.845 168.624 270.791C168.768 270.737 168.929 270.683 169.073 270.576C169.217 270.486 169.324 270.396 169.396 270.324H169.378Z" fill="white"/>
<path d="M175.789 270.108C175.825 270.396 175.932 270.593 176.094 270.683C176.256 270.773 176.453 270.809 176.669 270.791C176.884 270.773 177.117 270.701 177.333 270.611C177.566 270.504 177.746 270.414 177.907 270.306C178.267 270.09 178.608 269.803 178.967 269.462C179.326 269.121 179.667 268.761 179.972 268.402C180.278 268.043 180.565 267.702 180.816 267.396C181.068 267.091 181.265 266.84 181.427 266.678C181.517 266.57 181.57 266.552 181.606 266.606C181.642 266.66 181.642 266.75 181.606 266.84C181.535 267.037 181.427 267.253 181.229 267.522C181.05 267.791 180.816 268.079 180.547 268.384C180.278 268.69 179.99 268.995 179.685 269.3C179.38 269.606 179.075 269.911 178.769 270.162C178.464 270.414 178.195 270.665 177.925 270.863C177.674 271.06 177.459 271.204 177.297 271.294C177.064 271.437 176.776 271.545 176.471 271.617C176.166 271.707 175.86 271.725 175.573 271.725C175.268 271.725 174.999 271.635 174.747 271.491C174.496 271.348 174.28 271.132 174.137 270.827C174.011 270.557 173.939 270.27 173.939 269.983C173.939 269.677 173.957 269.372 174.029 269.085C174.101 268.779 174.191 268.492 174.316 268.205C174.442 267.917 174.568 267.648 174.693 267.396C175.052 266.696 175.501 266.067 176.04 265.511C176.561 264.954 177.171 264.487 177.854 264.074C178.177 263.858 178.518 263.679 178.877 263.553C179.236 263.409 179.613 263.319 179.99 263.247C180.224 263.194 180.493 263.176 180.762 263.212C181.032 263.23 181.247 263.373 181.391 263.607C181.499 263.786 181.553 263.966 181.535 264.163C181.517 264.361 181.481 264.559 181.409 264.738C181.337 264.936 181.229 265.097 181.122 265.259C180.996 265.421 180.888 265.564 180.745 265.69C180.439 266.013 180.098 266.301 179.721 266.534C179.344 266.768 178.949 266.983 178.554 267.163C178.338 267.253 178.123 267.325 177.925 267.396C177.71 267.468 177.494 267.54 177.279 267.594C177.153 267.612 177.01 267.63 176.83 267.648C176.651 267.648 176.525 267.72 176.435 267.809C176.327 267.917 176.256 268.061 176.202 268.258C176.148 268.456 176.094 268.636 176.022 268.761C175.932 268.959 175.86 269.174 175.825 269.39C175.789 269.606 175.771 269.821 175.789 270.037V270.108ZM176.704 267.271C177.153 267.253 177.548 267.109 177.907 266.858C178.267 266.606 178.608 266.337 178.931 266.049C179.093 265.906 179.254 265.762 179.398 265.6C179.541 265.439 179.667 265.277 179.775 265.097C179.847 264.954 179.936 264.792 180.044 264.577C180.152 264.361 180.188 264.181 180.17 264.02C180.17 263.876 180.116 263.804 180.044 263.768C179.972 263.75 179.883 263.768 179.757 263.804C179.649 263.84 179.523 263.912 179.38 264.02C179.236 264.128 179.128 264.217 179.003 264.307C178.877 264.397 178.787 264.505 178.698 264.595C178.608 264.684 178.554 264.756 178.536 264.774C178.177 265.151 177.836 265.546 177.548 265.977C177.243 266.409 176.974 266.84 176.686 267.271H176.704Z" fill="white"/>
<path d="M185.521 266.588C186.418 265.96 186.903 265.618 187.334 265.295C192.488 261.236 195.684 256.261 196.797 256.261H196.905C197.497 256.261 197.838 256.548 198.126 256.872H197.964C196.923 257.033 194.57 260.105 192.146 264.02C190.656 266.463 188.106 270.683 187.747 272.803C187.657 273.252 187.657 273.629 188.088 273.683C187.639 273.844 187.244 273.701 186.903 273.431C186.508 273.126 186.472 272.677 186.544 272.192C186.795 270.701 187.729 268.474 188.932 266.355C189.615 265.151 190.207 264.146 190.818 263.212C188.483 265.223 186.365 266.642 185.539 266.642C185.449 266.642 185.521 266.57 185.521 266.57V266.588Z" fill="white"/>
<path d="M204.931 262.781C202.633 265.097 199.921 266.696 197.731 266.75C196.707 266.768 195.791 266.211 195.738 265.008C195.522 261.308 202.345 256.333 206.26 256.117C206.96 256.081 208.522 256.117 208.576 257.051C208.576 257.482 208.235 257.895 207.876 258.111C208.037 257.841 208.199 257.572 208.199 257.374C208.199 256.997 207.589 256.907 207.283 256.925C203.674 257.141 196.905 262.547 196.905 265.349C196.905 266.103 197.623 266.283 198.413 266.157C202.112 265.672 206.619 259.745 206.583 258.398C206.583 257.698 207.93 258.488 207.912 258.883C207.84 261.487 202.794 272.659 195.001 273.737C194.122 273.844 192.434 273.575 192.236 272.336C191.877 270.216 195.163 267.414 196.671 266.804C196.743 266.768 196.761 266.822 196.707 266.858C195.684 267.45 192.649 270.216 192.99 271.887C193.152 272.713 194.445 272.803 195.486 272.461C199.239 271.186 202.848 267.091 204.967 262.799L204.931 262.781Z" fill="white"/>
<path d="M216.782 262.781C214.484 265.097 211.772 266.696 209.582 266.75C208.558 266.768 207.642 266.211 207.588 265.008C207.373 261.308 214.196 256.333 218.111 256.117C218.811 256.081 220.373 256.117 220.427 257.051C220.427 257.482 220.086 257.895 219.727 258.111C219.888 257.841 220.05 257.572 220.05 257.374C220.05 256.997 219.439 256.907 219.134 256.925C215.525 257.141 208.756 262.547 208.756 265.349C208.756 266.103 209.474 266.283 210.264 266.157C213.963 265.672 218.47 259.745 218.434 258.398C218.434 257.698 219.781 258.488 219.763 258.883C219.691 261.487 214.645 272.659 206.852 273.737C205.972 273.844 204.285 273.575 204.087 272.336C203.728 270.216 207.014 267.414 208.522 266.804C208.594 266.768 208.612 266.822 208.558 266.858C207.535 267.45 204.5 270.216 204.841 271.887C205.003 272.713 206.296 272.803 207.337 272.461C211.09 271.186 214.699 267.091 216.818 262.799L216.782 262.781Z" fill="white"/>
<path d="M228.633 262.781C226.335 265.097 223.623 266.696 221.451 266.75C220.427 266.768 219.511 266.211 219.44 265.008C219.224 261.308 226.047 256.333 229.962 256.117C230.662 256.081 232.224 256.117 232.278 257.051C232.296 257.482 231.937 257.895 231.578 258.111C231.739 257.841 231.901 257.572 231.901 257.374C231.901 256.997 231.29 256.907 230.967 256.925C227.358 257.141 220.589 262.547 220.589 265.349C220.589 266.103 221.307 266.283 222.097 266.157C225.796 265.672 230.303 259.745 230.267 258.398C230.249 257.698 231.614 258.488 231.596 258.883C231.524 261.487 226.478 272.659 218.685 273.737C217.806 273.844 216.118 273.575 215.902 272.336C215.543 270.216 218.829 267.414 220.337 266.804C220.409 266.768 220.427 266.822 220.373 266.858C219.35 267.45 216.315 270.216 216.656 271.887C216.818 272.713 218.111 272.803 219.152 272.461C222.905 271.186 226.514 267.091 228.633 262.799V262.781Z" fill="white"/>
<path d="M190.71 133.519C206.031 133.519 218.452 121.095 218.452 105.77C218.452 90.4442 206.031 78.0205 190.71 78.0205C175.388 78.0205 162.968 90.4442 162.968 105.77C162.968 121.095 175.388 133.519 190.71 133.519Z" fill="#E1251B"/>
<path d="M0 118.216H16.0167L35.3732 173.445L53.6164 118.216H57.5667L31.6922 196.865H27.8676L0 118.216Z" fill="white"/>
<path d="M62.738 145.839C67.6758 140.541 75.1814 138.691 80.9812 138.691C97.2493 138.691 101.684 149.162 101.684 168.398V195.518H86.8887V188.621C83.8003 192.932 79.3652 196.38 73.5834 196.38C64.336 196.38 55.4658 190.831 55.4658 182.569C55.4658 165.56 86.8887 165.309 86.4039 154.209C86.4039 153.598 86.2782 152.97 86.1525 152.359C84.9135 146.558 82.2022 142.122 76.2947 142.122C73.4577 142.122 71.1234 143.235 70.6206 144.097C74.0682 145.085 76.6538 148.282 76.6538 152.108C76.6538 156.795 72.8292 160.495 68.2684 160.495C63.7076 160.495 59.883 156.795 59.883 152.108C59.883 149.773 60.8706 147.294 62.72 145.821L62.738 145.839ZM86.8887 173.211C86.8887 170.122 87.1401 165.56 87.0144 160.998C83.3155 168.524 71.3568 172.098 71.3568 182.569C71.3568 188.119 74.4452 190.956 78.1442 190.956C82.0945 190.956 85.0392 187.005 86.8887 182.694V173.193V173.211Z" fill="white"/>
<path d="M131.509 138.817C135.083 138.817 138.656 140.056 141.744 142.768V105.787L156.54 103.075V195.536H141.744V191.962C138.548 194.8 134.723 196.147 130.899 196.147C120.664 196.147 110.321 186.161 110.321 167.913C110.321 149.665 121.041 138.817 131.527 138.817H131.509ZM135.962 190.597C137.938 190.597 140.02 189.484 141.762 187.149V147.941C140.164 145.714 138.189 144.618 136.339 144.618C131.042 144.618 125.745 152.629 125.745 167.913C125.745 183.197 130.791 190.597 135.98 190.597H135.962Z" fill="white"/>
<path d="M181.929 139.93V195.536H167.134V142.642L181.929 139.93Z" fill="white"/>
<path d="M207.804 139.931V145.732C210.031 142.158 213.604 139.571 218.901 139.571C228.148 139.571 232.332 143.882 234.307 149.072C236.282 143.774 240.214 139.571 247.002 139.571C263.773 139.571 264.006 153.742 264.006 162.255V195.536H249.21V159.166C249.21 148.192 246.499 143.505 243.536 143.505C240.089 143.505 236.39 149.414 235.887 158.538V195.518H221.091V159.148C221.091 148.174 218.38 143.487 215.417 143.487C212.095 143.487 208.522 149.036 207.768 157.909V195.518H192.972V142.625L207.768 139.913L207.804 139.931Z" fill="white"/>
<path d="M279.304 145.839C284.242 140.541 291.748 138.691 297.548 138.691C313.816 138.691 318.251 149.162 318.251 168.398V195.518H303.455V188.621C300.367 192.932 295.932 196.38 290.15 196.38C280.902 196.38 272.032 190.831 272.032 182.569C272.032 165.56 303.455 165.309 302.97 154.209C302.97 153.598 302.845 152.97 302.719 152.359C301.48 146.558 298.769 142.122 292.861 142.122C290.024 142.122 287.69 143.235 287.187 144.097C290.635 145.085 293.22 148.282 293.22 152.108C293.22 156.795 289.396 160.495 284.835 160.495C280.274 160.495 276.449 156.795 276.449 152.108C276.449 149.773 277.437 147.294 279.286 145.821L279.304 145.839ZM303.455 173.211C303.455 170.122 303.706 165.56 303.581 160.998C299.882 168.524 287.923 172.098 287.923 182.569C287.923 188.119 291.012 190.956 294.711 190.956C298.661 190.956 301.606 187.005 303.455 182.694V173.193V173.211Z" fill="white"/>
<path d="M328.109 195.518V142.625L342.904 139.913V149.162C346.1 143.738 351.9 139.661 358.311 139.661C362.871 139.661 366.696 143.361 366.696 148.049C366.696 152.736 362.871 156.436 358.311 156.436C353.75 156.436 349.925 152.611 349.925 148.049C349.925 147.312 350.051 146.576 350.176 145.947C346.729 148.659 343.766 153.347 342.904 160.621V195.5H328.109V195.518Z" fill="white"/>
<path d="M396 141.08C396 146.504 391.745 150.761 386.214 150.761C380.684 150.761 376.374 146.504 376.374 141.08C376.374 135.656 380.738 131.525 386.214 131.525C391.691 131.525 396 135.782 396 141.08ZM378.816 141.08C378.816 145.337 381.959 148.713 386.268 148.713C390.577 148.713 393.558 145.337 393.558 141.134C393.558 136.931 390.47 133.447 386.214 133.447C381.959 133.447 378.816 136.877 378.816 141.08ZM384.688 146.091H382.479V136.536C383.359 136.356 384.58 136.249 386.142 136.249C387.956 136.249 388.764 136.536 389.464 136.949C389.985 137.362 390.398 138.116 390.398 139.05C390.398 140.092 389.59 140.918 388.423 141.26V141.367C389.356 141.709 389.877 142.409 390.164 143.702C390.452 145.157 390.631 145.75 390.865 146.091H388.477C388.189 145.75 388.01 144.87 387.722 143.756C387.543 142.714 386.968 142.247 385.747 142.247H384.706V146.091H384.688ZM384.76 140.685H385.801C387.022 140.685 388.01 140.272 388.01 139.284C388.01 138.404 387.363 137.829 385.963 137.829C385.388 137.829 384.975 137.883 384.742 137.937V140.685H384.76Z" fill="white"/>
<path d="M79.2036 118.216V57.8149L299.649 3.43042V118.701" stroke="white" stroke-width="3" stroke-miterlimit="10"/>
<path d="M299.649 216.784V277.185L79.2036 331.57V216.299" stroke="white" stroke-width="3" stroke-miterlimit="10"/>
</svg>
