<svg width="260" height="78" viewBox="0 0 260 78" fill="none" xmlns="http://www.w3.org/2000/svg">
<path d="M129.831 36.2477C139.838 36.2477 147.951 28.1334 147.951 18.1239C147.951 8.11433 139.838 0 129.831 0C119.824 0 111.712 8.11433 111.712 18.1239C111.712 28.1334 119.824 36.2477 129.831 36.2477Z" fill="#E1261D"/>
<path d="M0.679199 26.2529H11.1403L23.7827 62.3247L35.698 26.2529H38.278L21.3785 77.6215H18.8805L0.679199 26.2529Z" fill="#D9D9D9"/>
<path d="M41.6559 44.2948C44.881 40.8342 49.7832 39.626 53.5712 39.626C64.1965 39.626 67.0932 46.465 67.0932 59.0285V76.7418H57.4296V72.2372C55.4125 75.0526 52.5157 77.3048 48.7394 77.3048C42.6997 77.3048 36.9062 73.6801 36.9062 68.284C36.9062 57.175 57.4296 57.0108 57.113 49.7613C57.113 49.3624 57.0309 48.9519 56.9488 48.553C56.1396 44.764 54.3687 41.8665 50.5103 41.8665C48.6574 41.8665 47.1328 42.5938 46.8044 43.1569C49.0561 43.8021 50.7449 45.8901 50.7449 48.3888C50.7449 51.4505 48.2469 53.867 45.2681 53.867C42.2892 53.867 39.7912 51.4505 39.7912 48.3888C39.7912 46.8638 40.4363 45.245 41.6442 44.283L41.6559 44.2948ZM57.4296 62.1723C57.4296 60.1546 57.5938 57.175 57.5117 54.1955C55.0958 59.1106 47.2852 61.445 47.2852 68.284C47.2852 71.9087 49.3024 73.7622 51.7183 73.7622C54.2983 73.7622 56.2217 71.1814 57.4296 68.3661V62.1606V62.1723Z" fill="#D9D9D9"/>
<path d="M86.5725 39.7083C88.9063 39.7083 91.2401 40.5177 93.2573 42.289V18.1356L102.921 16.3643V76.7537H93.2573V74.4193C91.1698 76.2727 88.6718 77.1525 86.1738 77.1525C79.489 77.1525 72.7339 70.6303 72.7339 58.7119C72.7339 46.7936 79.7353 39.7083 86.5842 39.7083H86.5725ZM89.481 73.5278C90.771 73.5278 92.1314 72.8005 93.269 71.2755V45.6674C92.2252 44.2128 90.9352 43.4973 89.7272 43.4973C86.2676 43.4973 82.8079 48.7291 82.8079 58.7119C82.8079 68.6947 86.1034 73.5278 89.4927 73.5278H89.481Z" fill="#D9D9D9"/>
<path d="M119.504 40.4355V76.7537H109.84V42.2069L119.504 40.4355Z" fill="#D9D9D9"/>
<path d="M136.404 40.4358V44.2248C137.858 41.8904 140.192 40.2012 143.651 40.2012C149.691 40.2012 152.424 43.0165 153.714 46.4067C155.004 42.9461 157.572 40.2012 162.005 40.2012C172.959 40.2012 173.111 49.4567 173.111 55.017V76.7539H163.448V52.9993C163.448 45.8319 161.677 42.7702 159.742 42.7702C157.49 42.7702 155.074 46.6296 154.746 52.5887V76.7422H145.082V52.9876C145.082 45.8202 143.311 42.7585 141.376 42.7585C139.206 42.7585 136.873 46.3832 136.38 52.1782V76.7422H126.717V42.1954L136.38 40.4241L136.404 40.4358Z" fill="#D9D9D9"/>
<path d="M183.103 44.2948C186.328 40.8342 191.23 39.626 195.018 39.626C205.644 39.626 208.54 46.465 208.54 59.0285V76.7418H198.877V72.2372C196.859 75.0526 193.963 77.3048 190.186 77.3048C184.147 77.3048 178.353 73.6801 178.353 68.284C178.353 57.175 198.877 57.0108 198.56 49.7613C198.56 49.3624 198.478 48.9519 198.396 48.553C197.587 44.764 195.816 41.8665 191.957 41.8665C190.104 41.8665 188.58 42.5938 188.251 43.1569C190.503 43.8021 192.192 45.8901 192.192 48.3888C192.192 51.4505 189.694 53.867 186.715 53.867C183.736 53.867 181.238 51.4505 181.238 48.3888C181.238 46.8638 181.883 45.245 183.091 44.283L183.103 44.2948ZM198.877 62.1723C198.877 60.1546 199.041 57.175 198.959 54.1955C196.543 59.1106 188.732 61.445 188.732 68.284C188.732 71.9087 190.749 73.7622 193.165 73.7622C195.745 73.7622 197.669 71.1814 198.877 68.3661V62.1606V62.1723Z" fill="#D9D9D9"/>
<path d="M214.979 76.7411V42.1943L224.642 40.423V46.4643C226.73 42.9216 230.518 40.2588 234.704 40.2588C237.683 40.2588 240.181 42.6753 240.181 45.737C240.181 48.7987 237.683 51.2152 234.704 51.2152C231.726 51.2152 229.228 48.7166 229.228 45.737C229.228 45.256 229.31 44.7751 229.392 44.3645C227.14 46.1358 225.205 49.1975 224.642 53.9485V76.7294H214.979V76.7411Z" fill="#D9D9D9"/>
<path d="M259.321 41.186C259.321 44.7287 256.541 47.5088 252.929 47.5088C249.317 47.5088 246.502 44.7287 246.502 41.186C246.502 37.6434 249.352 34.9453 252.929 34.9453C256.506 34.9453 259.321 37.7255 259.321 41.186ZM248.097 41.186C248.097 43.9662 250.15 46.1716 252.964 46.1716C255.779 46.1716 257.726 43.9662 257.726 41.2212C257.726 38.4762 255.709 36.2005 252.929 36.2005C250.15 36.2005 248.097 38.441 248.097 41.186ZM251.932 44.4589H250.49V38.2182C251.064 38.1009 251.862 38.0305 252.882 38.0305C254.067 38.0305 254.595 38.2182 255.052 38.488C255.392 38.7578 255.662 39.2505 255.662 39.8605C255.662 40.5408 255.134 41.0804 254.372 41.3033V41.3737C254.982 41.5966 255.322 42.0541 255.509 42.8987C255.697 43.8489 255.814 44.236 255.967 44.4589H254.407C254.219 44.236 254.102 43.6612 253.914 42.9339C253.797 42.2535 253.422 41.9485 252.624 41.9485H251.944V44.4589H251.932ZM251.979 40.9279H252.659C253.457 40.9279 254.102 40.6581 254.102 40.013C254.102 39.4382 253.68 39.0628 252.765 39.0628C252.39 39.0628 252.12 39.098 251.968 39.1332V40.9279H251.979Z" fill="#D9D9D9"/>
</svg>
