<svg width="276" height="233" viewBox="0 0 276 233" fill="none" xmlns="http://www.w3.org/2000/svg">
<g clip-path="url(#clip0_2020_263)">
<path d="M132.919 92.8652C143.598 92.8652 152.255 84.2242 152.255 73.5651C152.255 62.906 143.598 54.265 132.919 54.265C122.241 54.265 113.584 62.906 113.584 73.5651C113.584 84.2242 122.241 92.8652 132.919 92.8652Z" fill="#E1251B"/>
<path d="M0 82.222H11.1631L24.654 120.635L37.369 82.222H40.1222L22.0885 136.924H19.4229L0 82.222Z" fill="white"/>
<path d="M43.7267 101.435C47.1682 97.7496 52.3994 96.4629 56.4416 96.4629C67.78 96.4629 70.8711 103.746 70.8711 117.125V135.987H60.559V131.191C58.4065 134.189 55.3153 136.587 51.2856 136.587C44.8405 136.587 38.6582 132.727 38.6582 126.981C38.6582 115.151 60.559 114.976 60.2211 107.256C60.2211 106.831 60.1335 106.394 60.0459 105.969C59.1824 101.934 57.2926 98.8489 53.1753 98.8489C51.198 98.8489 49.5711 99.6234 49.2206 100.223C51.6235 100.91 53.4256 103.134 53.4256 105.794C53.4256 109.055 50.76 111.628 47.5812 111.628C44.4025 111.628 41.7368 109.055 41.7368 105.794C41.7368 104.17 42.4251 102.447 43.7142 101.422L43.7267 101.435ZM60.559 120.472C60.559 118.324 60.7342 115.151 60.6466 111.978C58.0686 117.212 49.7337 119.698 49.7337 126.981C49.7337 130.841 51.8863 132.814 54.4643 132.814C57.2176 132.814 59.27 130.066 60.559 127.068V120.46V120.472Z" fill="white"/>
<path d="M91.658 96.5503C94.1484 96.5503 96.6389 97.4122 98.7914 99.2985V73.5776L109.104 71.6913V136H98.7914V133.514C96.5638 135.488 93.8982 136.425 91.2325 136.425C84.0991 136.425 76.8906 129.479 76.8906 116.787C76.8906 104.095 84.3619 96.5503 91.6705 96.5503H91.658ZM94.7617 132.565C96.1383 132.565 97.59 131.79 98.8039 130.166V102.896C97.6901 101.347 96.3135 100.585 95.0245 100.585C91.3326 100.585 87.6408 106.157 87.6408 116.787C87.6408 127.418 91.1574 132.565 94.7742 132.565H94.7617Z" fill="white"/>
<path d="M126.799 97.3248V136H116.487V99.2111L126.799 97.3248Z" fill="white"/>
<path d="M144.833 97.3248V101.36C146.385 98.8738 148.876 97.075 152.567 97.075C159.012 97.075 161.928 100.073 163.305 103.683C164.682 99.9981 167.422 97.075 172.153 97.075C183.842 97.075 184.004 106.931 184.004 112.852V136H173.692V110.704C173.692 103.071 171.803 99.8107 169.738 99.8107C167.335 99.8107 164.757 103.921 164.406 110.266V135.987H154.094V110.691C154.094 103.059 152.204 99.7982 150.14 99.7982C147.824 99.7982 145.334 103.658 144.808 109.829V135.987H134.496V99.1986L144.808 97.3123L144.833 97.3248Z" fill="white"/>
<path d="M194.667 101.435C198.108 97.7496 203.339 96.4629 207.382 96.4629C218.72 96.4629 221.811 103.746 221.811 117.125V135.987H211.499V131.191C209.346 134.189 206.255 136.587 202.226 136.587C195.78 136.587 189.598 132.727 189.598 126.981C189.598 115.151 211.499 114.976 211.161 107.256C211.161 106.831 211.073 106.394 210.986 105.969C210.122 101.934 208.233 98.8489 204.115 98.8489C202.138 98.8489 200.511 99.6234 200.161 100.223C202.563 100.91 204.366 103.134 204.366 105.794C204.366 109.055 201.7 111.628 198.521 111.628C195.342 111.628 192.677 109.055 192.677 105.794C192.677 104.17 193.365 102.447 194.654 101.422L194.667 101.435ZM211.499 120.472C211.499 118.324 211.674 115.151 211.587 111.978C209.009 117.212 200.674 119.698 200.674 126.981C200.674 130.841 202.826 132.814 205.404 132.814C208.158 132.814 210.21 130.066 211.499 127.068V120.46V120.472Z" fill="white"/>
<path d="M228.682 135.987V99.1986L238.994 97.3123V103.746C241.221 99.9731 245.264 97.1375 249.731 97.1375C252.91 97.1375 255.576 99.7108 255.576 102.971C255.576 106.232 252.91 108.805 249.731 108.805C246.553 108.805 243.887 106.144 243.887 102.971C243.887 102.459 243.975 101.947 244.062 101.51C241.659 103.396 239.594 106.656 238.994 111.716V135.975H228.682V135.987Z" fill="white"/>
<path d="M276 98.1242C276 101.897 273.034 104.857 269.179 104.857C265.325 104.857 262.321 101.897 262.321 98.1242C262.321 94.3517 265.362 91.4785 269.179 91.4785C272.996 91.4785 276 94.4391 276 98.1242ZM264.023 98.1242C264.023 101.085 266.213 103.433 269.217 103.433C272.22 103.433 274.298 101.085 274.298 98.1617C274.298 95.2386 272.145 92.8152 269.179 92.8152C266.213 92.8152 264.023 95.2011 264.023 98.1242ZM268.116 101.609H266.576V94.9638C267.19 94.8388 268.041 94.7639 269.129 94.7639C270.393 94.7639 270.956 94.9638 271.445 95.2511C271.807 95.5384 272.095 96.0631 272.095 96.7126C272.095 97.4372 271.532 98.0118 270.719 98.2492V98.3241C271.369 98.5615 271.732 99.0486 271.933 99.9481C272.133 100.96 272.258 101.372 272.421 101.609H270.756C270.556 101.372 270.431 100.76 270.231 99.9855C270.105 99.261 269.705 98.9362 268.854 98.9362H268.128V101.609H268.116ZM268.166 97.8494H268.892C269.743 97.8494 270.431 97.5621 270.431 96.875C270.431 96.2629 269.98 95.8632 269.004 95.8632C268.604 95.8632 268.316 95.9007 268.153 95.9381V97.8494H268.166Z" fill="white"/>
<path d="M55.2026 82.2221V40.2116L208.846 2.38599V82.5594" stroke="white" stroke-width="3" stroke-miterlimit="10"/>
<path d="M208.846 150.778V192.788L55.2026 230.614V150.441" stroke="white" stroke-width="3" stroke-miterlimit="10"/>
</g>
<defs>
<clipPath id="clip0_2020_263">
<rect width="276" height="233" fill="white"/>
</clipPath>
</defs>
</svg>
