<svg width="28" height="39" viewBox="0 0 28 39" fill="none" xmlns="http://www.w3.org/2000/svg">
<path d="M13.3333 39C12.9512 38.9502 12.569 38.9051 12.1887 38.8488C9.03105 38.3822 6.37945 36.954 4.21517 34.6198C2.47529 32.7438 1.35888 30.5353 0.859362 28.034C0.6819 27.1457 0.594578 26.2256 0.588944 25.3185C0.563592 21.5205 0.48472 17.7196 0.613357 13.9253C0.786123 8.78644 3.19735 4.8729 7.64046 2.30111C10.2958 0.764049 13.2131 0.273917 16.2478 0.818508C21.1238 1.69455 24.5049 4.50577 26.5134 8.98644C27.2608 10.655 27.5866 12.438 27.5875 14.2708C27.5894 18.0943 27.6833 21.9205 27.5528 25.7392C27.3781 30.8677 24.9453 34.7381 20.5266 37.3249C18.8712 38.2939 17.0459 38.8122 15.122 38.9418C15.0244 38.9483 14.9286 38.9793 14.8319 38.999C14.3333 39 13.8338 39 13.3333 39ZM25.0336 19.8454C25.0392 19.8454 25.0448 19.8454 25.0505 19.8454C25.0505 18.0708 25.0495 16.2971 25.0505 14.5225C25.0514 11.4653 24.0805 8.76297 21.9379 6.57146C19.0271 3.59498 15.4788 2.50392 11.4272 3.52175C6.59917 4.73487 3.25087 8.97423 3.14758 13.946C3.06965 17.7299 3.10533 21.5177 3.12317 25.3035C3.13725 28.2781 4.13911 30.9006 6.21701 33.0339C9.10241 35.9963 12.6282 37.093 16.6525 36.1193C21.5369 34.9371 24.8777 30.7081 25.0233 25.6932C25.0815 23.7449 25.0336 21.7947 25.0336 19.8454Z" fill="white"/>
<path d="M15.3566 14.6717C15.3566 15.359 15.3613 16.0454 15.3557 16.7327C15.3491 17.5468 14.8289 18.1008 14.0843 18.1017C13.3397 18.1026 12.8149 17.5477 12.8111 16.7346C12.8055 15.3233 12.8055 13.9121 12.8111 12.4999C12.8139 11.6999 13.3548 11.1215 14.0815 11.1206C14.8083 11.1197 15.3482 11.6981 15.3547 12.4971C15.3613 13.2229 15.3566 13.9478 15.3566 14.6717Z" fill="white"/>
</svg>
