<svg width="124" height="124" viewBox="0 0 124 124" fill="none" xmlns="http://www.w3.org/2000/svg">
<circle cx="62" cy="62" r="61" fill="white" fill-opacity="0.1" stroke="white" stroke-width="2"/>
<path d="M52.3132 39.2666C53.8689 39.4845 55.1419 40.3217 56.4382 41.1222C64.7962 46.2789 73.1575 51.4289 81.5232 56.5744C83.7165 57.9231 84.866 59.8499 84.7213 62.4371C84.6011 64.5963 83.5351 66.2485 81.6979 67.3759C75.294 71.3051 68.8834 75.222 62.4705 79.1379C61.5135 79.7227 60.4364 79.4892 59.9123 78.6165C59.3737 77.7203 59.6764 76.6997 60.6812 76.0848C66.9995 72.2145 73.3199 68.3465 79.6415 64.4818C80.3604 64.0426 80.9368 63.4989 81.1226 62.6395C81.3908 61.3931 80.909 60.3636 79.7027 59.6197C76.4546 57.6173 73.2042 55.6194 69.9549 53.6181C64.3756 50.1825 58.7984 46.7437 53.2179 43.3114C51.8525 42.4709 50.2758 42.7522 49.4746 44.0197C49.2331 44.4021 49.1619 44.8947 49.0272 45.3405C48.9939 45.4495 49.0172 45.5762 49.0172 45.6941C49.0172 56.5233 49.0161 67.3525 49.0172 78.1817C49.0172 79.6115 49.6971 80.6166 50.9067 81.0313C51.6178 81.2748 52.2743 81.1648 52.9108 80.8068C53.3448 80.5622 53.791 80.3898 54.3051 80.501C55.0629 80.6644 55.5959 81.2026 55.7305 81.9597C55.8529 82.6446 55.5414 83.3662 54.9082 83.7431C52.7973 84.9961 50.6385 85.1029 48.5209 83.8165C46.459 82.5646 45.4697 80.6644 45.4686 78.2573C45.4653 72.6359 45.4675 67.0134 45.4675 61.392C45.4675 56.1553 45.4675 50.9175 45.4675 45.6807C45.4653 43.3037 46.4234 41.4291 48.4731 40.2028C49.1307 39.8092 49.9197 39.6357 50.6497 39.3644C50.7576 39.3244 50.8711 39.2988 50.9813 39.2666C51.4252 39.2666 51.8692 39.2666 52.3132 39.2666Z" fill="white"/>
</svg>
